<mxfile host="app.diagrams.net" modified="2024-04-20T15:59:49.782Z" agent="Mozilla/5.0 (Windows NT 10.0; Win64; x64) AppleWebKit/537.36 (KHTML, like Gecko) Chrome/124.0.0.0 Safari/537.36" etag="lehmd36xQhKWQYvFwwPm" version="24.2.7" type="github">
  <diagram name="Page-1" id="boOQu0blXiEXMvREqvY-">
    <mxGraphModel dx="7797" dy="2787" grid="0" gridSize="10" guides="1" tooltips="1" connect="1" arrows="1" fold="1" page="0" pageScale="1" pageWidth="827" pageHeight="1169" math="0" shadow="0">
      <root>
        <mxCell id="0" />
        <mxCell id="1" parent="0" />
        <mxCell id="hhZgl5cuM9jdRTXyqVL1-1" value="&lt;b&gt;MyClinic satisfying stakeholders&lt;/b&gt;&lt;div&gt;&lt;b&gt;needs&lt;/b&gt;&lt;/div&gt;" style="shape=parallelogram;perimeter=parallelogramPerimeter;whiteSpace=wrap;html=1;fixedSize=1;fillColor=#dae8fc;strokeColor=#000000;fontFamily=Helvetica;fontSize=11;fontColor=default;labelBackgroundColor=none;" parent="1" vertex="1">
          <mxGeometry x="-111" y="-183" width="231" height="60" as="geometry" />
        </mxCell>
        <mxCell id="hhZgl5cuM9jdRTXyqVL1-2" style="edgeStyle=none;rounded=0;orthogonalLoop=1;jettySize=auto;html=1;strokeColor=default;strokeWidth=2;align=center;verticalAlign=middle;fontFamily=Helvetica;fontSize=11;fontColor=default;labelBackgroundColor=default;endArrow=none;endFill=0;" parent="1" source="hhZgl5cuM9jdRTXyqVL1-7" target="hhZgl5cuM9jdRTXyqVL1-3" edge="1">
          <mxGeometry relative="1" as="geometry">
            <mxPoint x="109.10140693025028" y="403" as="sourcePoint" />
          </mxGeometry>
        </mxCell>
        <mxCell id="hhZgl5cuM9jdRTXyqVL1-3" value="" style="ellipse;whiteSpace=wrap;html=1;aspect=fixed;fillColor=#FFD966;strokeWidth=2;fontFamily=Helvetica;fontSize=11;fontColor=default;labelBackgroundColor=default;" parent="1" vertex="1">
          <mxGeometry x="-9.499999999999998" y="11" width="28" height="28" as="geometry" />
        </mxCell>
        <mxCell id="hhZgl5cuM9jdRTXyqVL1-4" value="" style="endArrow=block;html=1;rounded=0;endFill=1;strokeWidth=2;strokeColor=default;align=center;verticalAlign=middle;fontFamily=Helvetica;fontSize=11;fontColor=default;labelBackgroundColor=default;" parent="1" source="hhZgl5cuM9jdRTXyqVL1-3" target="hhZgl5cuM9jdRTXyqVL1-1" edge="1">
          <mxGeometry width="50" height="50" relative="1" as="geometry">
            <mxPoint x="26.305184923471018" y="340.9718581716346" as="sourcePoint" />
            <mxPoint x="8.731348314606578" y="290.0000000000001" as="targetPoint" />
          </mxGeometry>
        </mxCell>
        <mxCell id="hhZgl5cuM9jdRTXyqVL1-5" value="" style="endArrow=none;html=1;rounded=0;strokeWidth=2;strokeColor=default;align=center;verticalAlign=middle;fontFamily=Helvetica;fontSize=11;fontColor=default;labelBackgroundColor=default;" parent="1" source="hhZgl5cuM9jdRTXyqVL1-6" target="hhZgl5cuM9jdRTXyqVL1-3" edge="1">
          <mxGeometry width="50" height="50" relative="1" as="geometry">
            <mxPoint x="-85.02118303529437" y="403" as="sourcePoint" />
            <mxPoint x="50.31" y="339" as="targetPoint" />
          </mxGeometry>
        </mxCell>
        <mxCell id="hhZgl5cuM9jdRTXyqVL1-6" value="&lt;b&gt;Functional requirements&lt;/b&gt;" style="shape=parallelogram;perimeter=parallelogramPerimeter;whiteSpace=wrap;html=1;fixedSize=1;fillColor=#dae8fc;strokeColor=#000000;fontFamily=Helvetica;fontSize=11;fontColor=default;labelBackgroundColor=none;" parent="1" vertex="1">
          <mxGeometry x="-2224" y="398" width="172" height="32" as="geometry" />
        </mxCell>
        <mxCell id="hhZgl5cuM9jdRTXyqVL1-7" value="&lt;b&gt;Non-Functional requirements&lt;/b&gt;" style="shape=parallelogram;perimeter=parallelogramPerimeter;whiteSpace=wrap;html=1;fixedSize=1;fillColor=#dae8fc;strokeColor=#000000;fontFamily=Helvetica;fontSize=11;fontColor=default;labelBackgroundColor=none;" parent="1" vertex="1">
          <mxGeometry x="726.5" y="295" width="199" height="33" as="geometry" />
        </mxCell>
        <mxCell id="hhZgl5cuM9jdRTXyqVL1-8" style="edgeStyle=none;rounded=0;orthogonalLoop=1;jettySize=auto;html=1;strokeColor=default;strokeWidth=2;align=center;verticalAlign=middle;fontFamily=Helvetica;fontSize=11;fontColor=default;labelBackgroundColor=default;endArrow=none;endFill=0;" parent="1" source="hhZgl5cuM9jdRTXyqVL1-9" target="hhZgl5cuM9jdRTXyqVL1-16" edge="1">
          <mxGeometry relative="1" as="geometry" />
        </mxCell>
        <mxCell id="hhZgl5cuM9jdRTXyqVL1-9" value="&lt;b&gt;Security&lt;/b&gt;" style="shape=parallelogram;perimeter=parallelogramPerimeter;whiteSpace=wrap;html=1;fixedSize=1;fillColor=#dae8fc;strokeColor=#000000;fontFamily=Helvetica;fontSize=11;fontColor=default;labelBackgroundColor=none;" parent="1" vertex="1">
          <mxGeometry x="882.5" y="1055" width="91" height="36" as="geometry" />
        </mxCell>
        <mxCell id="hhZgl5cuM9jdRTXyqVL1-10" style="edgeStyle=none;rounded=0;orthogonalLoop=1;jettySize=auto;html=1;strokeColor=default;strokeWidth=2;align=center;verticalAlign=middle;fontFamily=Helvetica;fontSize=11;fontColor=default;labelBackgroundColor=default;endArrow=none;endFill=0;" parent="1" source="hhZgl5cuM9jdRTXyqVL1-11" target="hhZgl5cuM9jdRTXyqVL1-16" edge="1">
          <mxGeometry relative="1" as="geometry" />
        </mxCell>
        <mxCell id="hhZgl5cuM9jdRTXyqVL1-11" value="&lt;b&gt;Performance&lt;/b&gt;" style="shape=parallelogram;perimeter=parallelogramPerimeter;whiteSpace=wrap;html=1;fixedSize=1;fillColor=#dae8fc;strokeColor=#000000;fontFamily=Helvetica;fontSize=11;fontColor=default;labelBackgroundColor=none;" parent="1" vertex="1">
          <mxGeometry x="-405" y="926" width="126" height="34" as="geometry" />
        </mxCell>
        <mxCell id="hhZgl5cuM9jdRTXyqVL1-12" style="edgeStyle=none;rounded=0;orthogonalLoop=1;jettySize=auto;html=1;strokeColor=default;strokeWidth=2;align=center;verticalAlign=middle;fontFamily=Helvetica;fontSize=11;fontColor=default;labelBackgroundColor=default;endArrow=none;endFill=0;" parent="1" source="hhZgl5cuM9jdRTXyqVL1-13" target="hhZgl5cuM9jdRTXyqVL1-16" edge="1">
          <mxGeometry relative="1" as="geometry" />
        </mxCell>
        <mxCell id="hhZgl5cuM9jdRTXyqVL1-13" value="&lt;b&gt;Usability&lt;/b&gt;" style="shape=parallelogram;perimeter=parallelogramPerimeter;whiteSpace=wrap;html=1;fixedSize=1;fillColor=#dae8fc;strokeColor=#000000;fontFamily=Helvetica;fontSize=11;fontColor=default;labelBackgroundColor=none;" parent="1" vertex="1">
          <mxGeometry x="1476.69" y="1078.75" width="94" height="33" as="geometry" />
        </mxCell>
        <mxCell id="hhZgl5cuM9jdRTXyqVL1-16" value="" style="ellipse;whiteSpace=wrap;html=1;aspect=fixed;fillColor=#FFD966;strokeWidth=2;fontFamily=Helvetica;fontSize=11;fontColor=default;labelBackgroundColor=default;" parent="1" vertex="1">
          <mxGeometry x="603" y="775" width="28" height="28" as="geometry" />
        </mxCell>
        <mxCell id="hhZgl5cuM9jdRTXyqVL1-17" value="" style="endArrow=block;html=1;rounded=0;endFill=1;strokeWidth=2;strokeColor=default;align=center;verticalAlign=middle;fontFamily=Helvetica;fontSize=11;fontColor=default;labelBackgroundColor=default;" parent="1" source="hhZgl5cuM9jdRTXyqVL1-16" target="hhZgl5cuM9jdRTXyqVL1-19" edge="1">
          <mxGeometry width="50" height="50" relative="1" as="geometry">
            <mxPoint x="619.995184923471" y="836.9718581716346" as="sourcePoint" />
            <mxPoint x="619.5186915887848" y="712" as="targetPoint" />
          </mxGeometry>
        </mxCell>
        <mxCell id="hhZgl5cuM9jdRTXyqVL1-18" value="" style="endArrow=none;html=1;rounded=0;strokeWidth=2;strokeColor=default;align=center;verticalAlign=middle;fontFamily=Helvetica;fontSize=11;fontColor=default;labelBackgroundColor=default;" parent="1" source="VJ46IUaFnkmYb7uttQ85-18" target="hhZgl5cuM9jdRTXyqVL1-16" edge="1">
          <mxGeometry width="50" height="50" relative="1" as="geometry">
            <mxPoint x="485.8893672358963" y="968" as="sourcePoint" />
            <mxPoint x="644" y="835" as="targetPoint" />
            <Array as="points" />
          </mxGeometry>
        </mxCell>
        <mxCell id="hhZgl5cuM9jdRTXyqVL1-19" value="&lt;b&gt;Quality goals&lt;/b&gt;" style="shape=parallelogram;perimeter=parallelogramPerimeter;whiteSpace=wrap;html=1;fixedSize=1;fillColor=#dae8fc;strokeColor=#000000;fontFamily=Helvetica;fontSize=11;fontColor=default;labelBackgroundColor=none;" parent="1" vertex="1">
          <mxGeometry x="620" y="460" width="120.5" height="31" as="geometry" />
        </mxCell>
        <mxCell id="hhZgl5cuM9jdRTXyqVL1-20" style="edgeStyle=none;rounded=0;orthogonalLoop=1;jettySize=auto;html=1;strokeColor=default;strokeWidth=2;align=center;verticalAlign=middle;fontFamily=Helvetica;fontSize=11;fontColor=default;labelBackgroundColor=default;endArrow=none;endFill=0;" parent="1" source="hhZgl5cuM9jdRTXyqVL1-21" target="hhZgl5cuM9jdRTXyqVL1-24" edge="1">
          <mxGeometry relative="1" as="geometry" />
        </mxCell>
        <mxCell id="hhZgl5cuM9jdRTXyqVL1-21" value="" style="ellipse;whiteSpace=wrap;html=1;aspect=fixed;fillColor=#FFD966;strokeWidth=2;fontFamily=Helvetica;fontSize=11;fontColor=default;labelBackgroundColor=default;" parent="1" vertex="1">
          <mxGeometry x="812" y="402" width="28" height="28" as="geometry" />
        </mxCell>
        <mxCell id="hhZgl5cuM9jdRTXyqVL1-22" value="" style="endArrow=block;html=1;rounded=0;endFill=1;strokeWidth=2;strokeColor=default;align=center;verticalAlign=middle;fontFamily=Helvetica;fontSize=11;fontColor=default;labelBackgroundColor=default;" parent="1" source="hhZgl5cuM9jdRTXyqVL1-21" target="hhZgl5cuM9jdRTXyqVL1-7" edge="1">
          <mxGeometry width="50" height="50" relative="1" as="geometry">
            <mxPoint x="819.995184923471" y="566.9718581716346" as="sourcePoint" />
            <mxPoint x="816" y="522" as="targetPoint" />
          </mxGeometry>
        </mxCell>
        <mxCell id="hhZgl5cuM9jdRTXyqVL1-23" value="" style="endArrow=none;html=1;rounded=0;strokeWidth=2;strokeColor=default;align=center;verticalAlign=middle;fontFamily=Helvetica;fontSize=11;fontColor=default;labelBackgroundColor=default;" parent="1" source="hhZgl5cuM9jdRTXyqVL1-19" target="hhZgl5cuM9jdRTXyqVL1-21" edge="1">
          <mxGeometry width="50" height="50" relative="1" as="geometry">
            <mxPoint x="819" y="629" as="sourcePoint" />
            <mxPoint x="844" y="565" as="targetPoint" />
          </mxGeometry>
        </mxCell>
        <mxCell id="hhZgl5cuM9jdRTXyqVL1-24" value="&lt;b&gt;Devlopement goals&lt;/b&gt;" style="shape=parallelogram;perimeter=parallelogramPerimeter;whiteSpace=wrap;html=1;fixedSize=1;fillColor=#dae8fc;strokeColor=#000000;fontFamily=Helvetica;fontSize=11;fontColor=default;labelBackgroundColor=none;" parent="1" vertex="1">
          <mxGeometry x="962" y="460" width="151" height="32" as="geometry" />
        </mxCell>
        <mxCell id="hhZgl5cuM9jdRTXyqVL1-25" style="edgeStyle=none;rounded=0;orthogonalLoop=1;jettySize=auto;html=1;strokeColor=default;strokeWidth=2;align=center;verticalAlign=middle;fontFamily=Helvetica;fontSize=11;fontColor=default;labelBackgroundColor=default;endArrow=none;endFill=0;" parent="1" source="hhZgl5cuM9jdRTXyqVL1-27" target="hhZgl5cuM9jdRTXyqVL1-31" edge="1">
          <mxGeometry relative="1" as="geometry" />
        </mxCell>
        <mxCell id="hhZgl5cuM9jdRTXyqVL1-26" style="edgeStyle=none;rounded=0;orthogonalLoop=1;jettySize=auto;html=1;strokeColor=default;strokeWidth=2;align=center;verticalAlign=middle;fontFamily=Helvetica;fontSize=11;fontColor=default;labelBackgroundColor=default;endArrow=none;endFill=0;" parent="1" source="hhZgl5cuM9jdRTXyqVL1-27" target="hhZgl5cuM9jdRTXyqVL1-32" edge="1">
          <mxGeometry relative="1" as="geometry" />
        </mxCell>
        <mxCell id="hhZgl5cuM9jdRTXyqVL1-27" value="" style="ellipse;whiteSpace=wrap;html=1;aspect=fixed;fillColor=#FFD966;strokeWidth=2;fontFamily=Helvetica;fontSize=11;fontColor=default;labelBackgroundColor=default;" parent="1" vertex="1">
          <mxGeometry x="-2163" y="533" width="28" height="28" as="geometry" />
        </mxCell>
        <mxCell id="hhZgl5cuM9jdRTXyqVL1-28" value="" style="endArrow=block;html=1;rounded=0;endFill=1;strokeWidth=2;strokeColor=default;align=center;verticalAlign=middle;fontFamily=Helvetica;fontSize=11;fontColor=default;labelBackgroundColor=default;" parent="1" source="hhZgl5cuM9jdRTXyqVL1-27" target="hhZgl5cuM9jdRTXyqVL1-6" edge="1">
          <mxGeometry width="50" height="50" relative="1" as="geometry">
            <mxPoint x="-1290.034815076529" y="728.9718581716346" as="sourcePoint" />
            <mxPoint x="-1648.999387755102" y="620" as="targetPoint" />
          </mxGeometry>
        </mxCell>
        <mxCell id="hhZgl5cuM9jdRTXyqVL1-29" value="" style="endArrow=none;html=1;rounded=0;strokeWidth=2;strokeColor=default;align=center;verticalAlign=middle;fontFamily=Helvetica;fontSize=11;fontColor=default;labelBackgroundColor=default;" parent="1" source="hhZgl5cuM9jdRTXyqVL1-30" target="hhZgl5cuM9jdRTXyqVL1-27" edge="1">
          <mxGeometry width="50" height="50" relative="1" as="geometry">
            <mxPoint x="-1292.03" y="706" as="sourcePoint" />
            <mxPoint x="-1267.03" y="642" as="targetPoint" />
          </mxGeometry>
        </mxCell>
        <mxCell id="hhZgl5cuM9jdRTXyqVL1-30" value="&lt;b&gt;&amp;nbsp;Basic features&lt;/b&gt;" style="shape=parallelogram;perimeter=parallelogramPerimeter;whiteSpace=wrap;html=1;fixedSize=1;fillColor=#dae8fc;strokeColor=#000000;fontFamily=Helvetica;fontSize=11;fontColor=default;labelBackgroundColor=none;" parent="1" vertex="1">
          <mxGeometry x="-3097" y="629" width="137" height="29" as="geometry" />
        </mxCell>
        <mxCell id="hhZgl5cuM9jdRTXyqVL1-31" value="&lt;b&gt;Existing&amp;nbsp;&lt;/b&gt;&lt;b&gt;features&lt;/b&gt;" style="shape=parallelogram;perimeter=parallelogramPerimeter;whiteSpace=wrap;html=1;fixedSize=1;fillColor=#dae8fc;strokeColor=#000000;fontFamily=Helvetica;fontSize=11;fontColor=default;labelBackgroundColor=none;" parent="1" vertex="1">
          <mxGeometry x="-2212.5" y="624" width="127" height="30" as="geometry" />
        </mxCell>
        <mxCell id="hhZgl5cuM9jdRTXyqVL1-32" value="&lt;b&gt;New&amp;nbsp;&lt;/b&gt;&lt;b&gt;features&lt;/b&gt;" style="shape=parallelogram;perimeter=parallelogramPerimeter;whiteSpace=wrap;html=1;fixedSize=1;fillColor=#dae8fc;strokeColor=#000000;fontFamily=Helvetica;fontSize=11;fontColor=default;labelBackgroundColor=none;" parent="1" vertex="1">
          <mxGeometry x="-1338" y="715.5" width="119" height="29" as="geometry" />
        </mxCell>
        <mxCell id="hhZgl5cuM9jdRTXyqVL1-33" value="&lt;b&gt;Fault tolerance&lt;/b&gt;" style="shape=parallelogram;perimeter=parallelogramPerimeter;whiteSpace=wrap;html=1;fixedSize=1;fillColor=#dae8fc;strokeColor=#000000;strokeWidth=3;fontFamily=Helvetica;fontSize=11;fontColor=default;labelBackgroundColor=none;" parent="1" vertex="1">
          <mxGeometry x="261" y="1088.5" width="125" height="36" as="geometry" />
        </mxCell>
        <mxCell id="hhZgl5cuM9jdRTXyqVL1-34" style="edgeStyle=none;rounded=0;orthogonalLoop=1;jettySize=auto;html=1;strokeColor=default;strokeWidth=2;align=center;verticalAlign=middle;fontFamily=Helvetica;fontSize=11;fontColor=default;labelBackgroundColor=default;endArrow=none;endFill=0;" parent="1" source="hhZgl5cuM9jdRTXyqVL1-35" target="hhZgl5cuM9jdRTXyqVL1-95" edge="1">
          <mxGeometry relative="1" as="geometry">
            <mxPoint x="531.9913148360147" y="1069.225535862727" as="sourcePoint" />
          </mxGeometry>
        </mxCell>
        <mxCell id="hhZgl5cuM9jdRTXyqVL1-35" value="" style="ellipse;whiteSpace=wrap;html=1;aspect=fixed;fillColor=#FFD966;strokeWidth=2;fontFamily=Helvetica;fontSize=11;fontColor=default;labelBackgroundColor=default;" parent="1" vertex="1">
          <mxGeometry x="462" y="1044" width="28" height="28" as="geometry" />
        </mxCell>
        <mxCell id="hhZgl5cuM9jdRTXyqVL1-36" value="" style="endArrow=block;html=1;rounded=0;endFill=1;strokeWidth=2;strokeColor=default;align=center;verticalAlign=middle;fontFamily=Helvetica;fontSize=11;fontColor=default;labelBackgroundColor=default;" parent="1" source="hhZgl5cuM9jdRTXyqVL1-35" target="VJ46IUaFnkmYb7uttQ85-18" edge="1">
          <mxGeometry width="50" height="50" relative="1" as="geometry">
            <mxPoint x="439.495184923471" y="1114.9718581716347" as="sourcePoint" />
            <mxPoint x="476" y="995" as="targetPoint" />
          </mxGeometry>
        </mxCell>
        <mxCell id="hhZgl5cuM9jdRTXyqVL1-37" value="" style="endArrow=none;html=1;rounded=0;strokeWidth=2;strokeColor=default;align=center;verticalAlign=middle;fontFamily=Helvetica;fontSize=11;fontColor=default;labelBackgroundColor=default;" parent="1" source="hhZgl5cuM9jdRTXyqVL1-33" target="hhZgl5cuM9jdRTXyqVL1-35" edge="1">
          <mxGeometry width="50" height="50" relative="1" as="geometry">
            <mxPoint x="448.5" y="1177" as="sourcePoint" />
            <mxPoint x="473.5" y="1113" as="targetPoint" />
          </mxGeometry>
        </mxCell>
        <mxCell id="hhZgl5cuM9jdRTXyqVL1-38" value="&lt;b&gt;GUI provided&lt;/b&gt;" style="shape=parallelogram;perimeter=parallelogramPerimeter;whiteSpace=wrap;html=1;fixedSize=1;fillColor=#dae8fc;strokeColor=#000000;strokeWidth=3;fontFamily=Helvetica;fontSize=11;fontColor=default;labelBackgroundColor=none;" parent="1" vertex="1">
          <mxGeometry x="1267" y="1227.25" width="139" height="36" as="geometry" />
        </mxCell>
        <mxCell id="hhZgl5cuM9jdRTXyqVL1-39" style="edgeStyle=none;rounded=0;orthogonalLoop=1;jettySize=auto;html=1;strokeColor=default;strokeWidth=2;align=center;verticalAlign=middle;fontFamily=Helvetica;fontSize=11;fontColor=default;labelBackgroundColor=default;endArrow=none;endFill=0;" parent="1" source="hhZgl5cuM9jdRTXyqVL1-40" target="hhZgl5cuM9jdRTXyqVL1-43" edge="1">
          <mxGeometry relative="1" as="geometry" />
        </mxCell>
        <mxCell id="hhZgl5cuM9jdRTXyqVL1-40" value="" style="ellipse;whiteSpace=wrap;html=1;aspect=fixed;fillColor=#FFD966;strokeWidth=2;fontFamily=Helvetica;fontSize=11;fontColor=default;labelBackgroundColor=default;" parent="1" vertex="1">
          <mxGeometry x="1509.69" y="1151.25" width="28" height="28" as="geometry" />
        </mxCell>
        <mxCell id="hhZgl5cuM9jdRTXyqVL1-41" value="" style="endArrow=block;html=1;rounded=0;endFill=1;strokeWidth=2;strokeColor=default;align=center;verticalAlign=middle;fontFamily=Helvetica;fontSize=11;fontColor=default;labelBackgroundColor=default;" parent="1" source="hhZgl5cuM9jdRTXyqVL1-40" target="hhZgl5cuM9jdRTXyqVL1-13" edge="1">
          <mxGeometry width="50" height="50" relative="1" as="geometry">
            <mxPoint x="1571.6851849234713" y="1242.2218581716347" as="sourcePoint" />
            <mxPoint x="1530.6900000000005" y="1111.75" as="targetPoint" />
          </mxGeometry>
        </mxCell>
        <mxCell id="hhZgl5cuM9jdRTXyqVL1-42" value="" style="endArrow=none;html=1;rounded=0;strokeWidth=2;strokeColor=default;align=center;verticalAlign=middle;fontFamily=Helvetica;fontSize=11;fontColor=default;labelBackgroundColor=default;" parent="1" source="hhZgl5cuM9jdRTXyqVL1-38" target="hhZgl5cuM9jdRTXyqVL1-40" edge="1">
          <mxGeometry width="50" height="50" relative="1" as="geometry">
            <mxPoint x="1589.69" y="1304.25" as="sourcePoint" />
            <mxPoint x="1614.69" y="1240.25" as="targetPoint" />
          </mxGeometry>
        </mxCell>
        <mxCell id="hhZgl5cuM9jdRTXyqVL1-43" value="&lt;b&gt;Help menu provided&lt;/b&gt;" style="shape=parallelogram;perimeter=parallelogramPerimeter;whiteSpace=wrap;html=1;fixedSize=1;fillColor=#dae8fc;strokeColor=#000000;strokeWidth=3;fontFamily=Helvetica;fontSize=11;fontColor=default;labelBackgroundColor=none;" parent="1" vertex="1">
          <mxGeometry x="1635.19" y="1226.5" width="139" height="36" as="geometry" />
        </mxCell>
        <mxCell id="hhZgl5cuM9jdRTXyqVL1-44" value="&lt;div&gt;&lt;b&gt;Interface Designer&lt;/b&gt;&lt;/div&gt;" style="shape=hexagon;perimeter=hexagonPerimeter2;whiteSpace=wrap;html=1;fixedSize=1;fillColor=#FFF2CC;fontFamily=Helvetica;fontSize=11;fontColor=default;labelBackgroundColor=none;" parent="1" vertex="1">
          <mxGeometry x="1267.31" y="1343.25" width="138.38" height="40" as="geometry" />
        </mxCell>
        <mxCell id="hhZgl5cuM9jdRTXyqVL1-45" value="" style="ellipse;whiteSpace=wrap;html=1;aspect=fixed;fillColor=#FF0000;strokeWidth=2;fontFamily=Helvetica;fontSize=11;fontColor=default;labelBackgroundColor=default;" parent="1" vertex="1">
          <mxGeometry x="1322.5" y="1294" width="28" height="28" as="geometry" />
        </mxCell>
        <mxCell id="hhZgl5cuM9jdRTXyqVL1-46" value="" style="endArrow=block;html=1;rounded=0;endFill=1;strokeWidth=2;strokeColor=default;align=center;verticalAlign=middle;fontFamily=Helvetica;fontSize=11;fontColor=default;labelBackgroundColor=default;" parent="1" source="hhZgl5cuM9jdRTXyqVL1-45" target="hhZgl5cuM9jdRTXyqVL1-38" edge="1">
          <mxGeometry width="50" height="50" relative="1" as="geometry">
            <mxPoint x="1516.1451849234713" y="1314.2218581716347" as="sourcePoint" />
            <mxPoint x="1476.69054054054" y="1266.25" as="targetPoint" />
          </mxGeometry>
        </mxCell>
        <mxCell id="hhZgl5cuM9jdRTXyqVL1-47" value="" style="endArrow=none;html=1;rounded=0;strokeWidth=2;strokeColor=default;align=center;verticalAlign=middle;fontFamily=Helvetica;fontSize=11;fontColor=default;labelBackgroundColor=default;" parent="1" source="hhZgl5cuM9jdRTXyqVL1-44" target="hhZgl5cuM9jdRTXyqVL1-45" edge="1">
          <mxGeometry width="50" height="50" relative="1" as="geometry">
            <mxPoint x="1502.46" y="1376.25" as="sourcePoint" />
            <mxPoint x="1527.46" y="1312.25" as="targetPoint" />
          </mxGeometry>
        </mxCell>
        <mxCell id="hhZgl5cuM9jdRTXyqVL1-48" value="&lt;b&gt;Time performance&lt;/b&gt;" style="shape=parallelogram;perimeter=parallelogramPerimeter;whiteSpace=wrap;html=1;fixedSize=1;fillColor=#dae8fc;strokeColor=#000000;strokeWidth=1;fontFamily=Helvetica;fontSize=11;fontColor=default;labelBackgroundColor=none;" parent="1" vertex="1">
          <mxGeometry x="-316" y="1078.75" width="150" height="36" as="geometry" />
        </mxCell>
        <mxCell id="hhZgl5cuM9jdRTXyqVL1-49" value="" style="ellipse;whiteSpace=wrap;html=1;aspect=fixed;fillColor=#FFD966;strokeWidth=2;fontFamily=Helvetica;fontSize=11;fontColor=default;labelBackgroundColor=default;" parent="1" vertex="1">
          <mxGeometry x="-356" y="1013" width="28" height="28" as="geometry" />
        </mxCell>
        <mxCell id="hhZgl5cuM9jdRTXyqVL1-50" value="" style="endArrow=block;html=1;rounded=0;endFill=1;strokeWidth=2;strokeColor=default;align=center;verticalAlign=middle;fontFamily=Helvetica;fontSize=11;fontColor=default;labelBackgroundColor=default;" parent="1" source="hhZgl5cuM9jdRTXyqVL1-49" target="hhZgl5cuM9jdRTXyqVL1-11" edge="1">
          <mxGeometry width="50" height="50" relative="1" as="geometry">
            <mxPoint x="-45.004815076528985" y="1011.4718581716346" as="sourcePoint" />
            <mxPoint x="-49" y="966.5" as="targetPoint" />
          </mxGeometry>
        </mxCell>
        <mxCell id="hhZgl5cuM9jdRTXyqVL1-51" value="" style="endArrow=none;html=1;rounded=0;strokeWidth=2;strokeColor=default;align=center;verticalAlign=middle;fontFamily=Helvetica;fontSize=11;fontColor=default;labelBackgroundColor=default;" parent="1" source="hhZgl5cuM9jdRTXyqVL1-48" target="hhZgl5cuM9jdRTXyqVL1-49" edge="1">
          <mxGeometry width="50" height="50" relative="1" as="geometry">
            <mxPoint x="-46" y="1073.5" as="sourcePoint" />
            <mxPoint x="-21" y="1009.5" as="targetPoint" />
          </mxGeometry>
        </mxCell>
        <mxCell id="hhZgl5cuM9jdRTXyqVL1-52" value="&lt;b&gt;DB indexing&lt;/b&gt;" style="shape=parallelogram;perimeter=parallelogramPerimeter;whiteSpace=wrap;html=1;fixedSize=1;fillColor=#dae8fc;strokeColor=#000000;strokeWidth=3;fontFamily=Helvetica;fontSize=11;fontColor=default;labelBackgroundColor=none;" parent="1" vertex="1">
          <mxGeometry x="-557" y="1297" width="150" height="36" as="geometry" />
        </mxCell>
        <mxCell id="hhZgl5cuM9jdRTXyqVL1-53" value="" style="ellipse;whiteSpace=wrap;html=1;aspect=fixed;fillColor=#FFD966;strokeWidth=2;fontFamily=Helvetica;fontSize=11;fontColor=default;labelBackgroundColor=default;" parent="1" vertex="1">
          <mxGeometry x="-259" y="1197" width="28" height="28" as="geometry" />
        </mxCell>
        <mxCell id="hhZgl5cuM9jdRTXyqVL1-54" value="" style="endArrow=none;html=1;rounded=0;strokeWidth=2;strokeColor=default;align=center;verticalAlign=middle;fontFamily=Helvetica;fontSize=11;fontColor=default;labelBackgroundColor=default;" parent="1" source="hhZgl5cuM9jdRTXyqVL1-52" target="hhZgl5cuM9jdRTXyqVL1-53" edge="1">
          <mxGeometry width="50" height="50" relative="1" as="geometry">
            <mxPoint x="-88" y="1225" as="sourcePoint" />
            <mxPoint x="-63" y="1161" as="targetPoint" />
          </mxGeometry>
        </mxCell>
        <mxCell id="hhZgl5cuM9jdRTXyqVL1-55" style="edgeStyle=none;rounded=0;orthogonalLoop=1;jettySize=auto;html=1;strokeColor=default;strokeWidth=2;align=center;verticalAlign=middle;fontFamily=Helvetica;fontSize=11;fontColor=default;labelBackgroundColor=default;endArrow=none;endFill=0;" parent="1" source="hhZgl5cuM9jdRTXyqVL1-56" target="hhZgl5cuM9jdRTXyqVL1-53" edge="1">
          <mxGeometry relative="1" as="geometry" />
        </mxCell>
        <mxCell id="hhZgl5cuM9jdRTXyqVL1-56" value="&lt;b&gt;DB connection pool&lt;/b&gt;" style="shape=parallelogram;perimeter=parallelogramPerimeter;whiteSpace=wrap;html=1;fixedSize=1;fillColor=#dae8fc;strokeColor=#000000;strokeWidth=3;fontFamily=Helvetica;fontSize=11;fontColor=default;labelBackgroundColor=none;" parent="1" vertex="1">
          <mxGeometry x="-388.99999999999994" y="1300.5" width="150" height="36" as="geometry" />
        </mxCell>
        <mxCell id="hhZgl5cuM9jdRTXyqVL1-57" value="" style="ellipse;whiteSpace=wrap;html=1;aspect=fixed;fillColor=#FFD966;strokeWidth=2;fontFamily=Helvetica;fontSize=11;fontColor=default;labelBackgroundColor=default;" parent="1" vertex="1">
          <mxGeometry x="1133" y="542" width="28" height="28" as="geometry" />
        </mxCell>
        <mxCell id="hhZgl5cuM9jdRTXyqVL1-58" value="" style="endArrow=block;html=1;rounded=0;endFill=1;strokeWidth=2;strokeColor=default;align=center;verticalAlign=middle;fontFamily=Helvetica;fontSize=11;fontColor=default;labelBackgroundColor=default;" parent="1" source="hhZgl5cuM9jdRTXyqVL1-57" target="hhZgl5cuM9jdRTXyqVL1-24" edge="1">
          <mxGeometry width="50" height="50" relative="1" as="geometry">
            <mxPoint x="1144.995184923471" y="754.9718581716346" as="sourcePoint" />
            <mxPoint x="1141" y="710" as="targetPoint" />
          </mxGeometry>
        </mxCell>
        <mxCell id="hhZgl5cuM9jdRTXyqVL1-59" value="" style="endArrow=none;html=1;rounded=0;strokeWidth=2;strokeColor=default;align=center;verticalAlign=middle;fontFamily=Helvetica;fontSize=11;fontColor=default;labelBackgroundColor=default;" parent="1" source="hhZgl5cuM9jdRTXyqVL1-60" target="hhZgl5cuM9jdRTXyqVL1-57" edge="1">
          <mxGeometry width="50" height="50" relative="1" as="geometry">
            <mxPoint x="1144" y="817" as="sourcePoint" />
            <mxPoint x="1169" y="753" as="targetPoint" />
          </mxGeometry>
        </mxCell>
        <mxCell id="hhZgl5cuM9jdRTXyqVL1-60" value="&lt;b&gt;Maintainability&lt;/b&gt;" style="shape=parallelogram;perimeter=parallelogramPerimeter;whiteSpace=wrap;html=1;fixedSize=1;fillColor=#dae8fc;strokeColor=#000000;fontFamily=Helvetica;fontSize=11;fontColor=default;labelBackgroundColor=none;" parent="1" vertex="1">
          <mxGeometry x="1199" y="607" width="126" height="34" as="geometry" />
        </mxCell>
        <mxCell id="hhZgl5cuM9jdRTXyqVL1-62" value="&lt;b&gt;OOP Based modularization&lt;/b&gt;" style="shape=parallelogram;perimeter=parallelogramPerimeter;whiteSpace=wrap;html=1;fixedSize=1;fillColor=#dae8fc;strokeColor=#000000;strokeWidth=3;fontFamily=Helvetica;fontSize=11;fontColor=default;labelBackgroundColor=none;" parent="1" vertex="1">
          <mxGeometry x="1073" y="720.97" width="136" height="36" as="geometry" />
        </mxCell>
        <mxCell id="hhZgl5cuM9jdRTXyqVL1-63" style="edgeStyle=none;rounded=0;orthogonalLoop=1;jettySize=auto;html=1;strokeColor=default;strokeWidth=2;align=center;verticalAlign=middle;fontFamily=Helvetica;fontSize=11;fontColor=default;labelBackgroundColor=default;endArrow=none;endFill=0;" parent="1" source="hhZgl5cuM9jdRTXyqVL1-64" target="hhZgl5cuM9jdRTXyqVL1-66" edge="1">
          <mxGeometry relative="1" as="geometry">
            <mxPoint x="1276.66877390225" y="712.9973123407667" as="targetPoint" />
          </mxGeometry>
        </mxCell>
        <mxCell id="hhZgl5cuM9jdRTXyqVL1-64" value="&lt;b&gt;Acceptance criteria&lt;/b&gt;" style="shape=parallelogram;perimeter=parallelogramPerimeter;whiteSpace=wrap;html=1;fixedSize=1;fillColor=#dae8fc;strokeColor=#000000;strokeWidth=3;fontFamily=Helvetica;fontSize=11;fontColor=default;labelBackgroundColor=none;" parent="1" vertex="1">
          <mxGeometry x="1316" y="720.97" width="153.5" height="36" as="geometry" />
        </mxCell>
        <mxCell id="hhZgl5cuM9jdRTXyqVL1-66" value="" style="ellipse;whiteSpace=wrap;html=1;aspect=fixed;fillColor=#FFD966;strokeWidth=2;fontFamily=Helvetica;fontSize=11;fontColor=default;labelBackgroundColor=default;" parent="1" vertex="1">
          <mxGeometry x="1251" y="672" width="28" height="28" as="geometry" />
        </mxCell>
        <mxCell id="hhZgl5cuM9jdRTXyqVL1-67" value="" style="endArrow=block;html=1;rounded=0;endFill=1;strokeWidth=2;strokeColor=default;align=center;verticalAlign=middle;fontFamily=Helvetica;fontSize=11;fontColor=default;labelBackgroundColor=default;" parent="1" source="hhZgl5cuM9jdRTXyqVL1-66" target="hhZgl5cuM9jdRTXyqVL1-60" edge="1">
          <mxGeometry width="50" height="50" relative="1" as="geometry">
            <mxPoint x="1217.995184923471" y="678.9718581716346" as="sourcePoint" />
            <mxPoint x="1214" y="634" as="targetPoint" />
          </mxGeometry>
        </mxCell>
        <mxCell id="hhZgl5cuM9jdRTXyqVL1-68" value="" style="endArrow=none;html=1;rounded=0;strokeWidth=2;strokeColor=default;align=center;verticalAlign=middle;fontFamily=Helvetica;fontSize=11;fontColor=default;labelBackgroundColor=default;" parent="1" source="hhZgl5cuM9jdRTXyqVL1-62" target="hhZgl5cuM9jdRTXyqVL1-66" edge="1">
          <mxGeometry width="50" height="50" relative="1" as="geometry">
            <mxPoint x="1141" y="773.97" as="sourcePoint" />
            <mxPoint x="1249.3734372161125" y="713.1819755133449" as="targetPoint" />
          </mxGeometry>
        </mxCell>
        <mxCell id="hhZgl5cuM9jdRTXyqVL1-69" style="edgeStyle=none;rounded=0;orthogonalLoop=1;jettySize=auto;html=1;strokeColor=default;strokeWidth=2;align=center;verticalAlign=middle;fontFamily=Helvetica;fontSize=11;fontColor=default;labelBackgroundColor=default;endArrow=none;endFill=0;" parent="1" source="hhZgl5cuM9jdRTXyqVL1-70" target="hhZgl5cuM9jdRTXyqVL1-40" edge="1">
          <mxGeometry relative="1" as="geometry" />
        </mxCell>
        <mxCell id="hhZgl5cuM9jdRTXyqVL1-70" value="&lt;b&gt;Configurable settings menu provided&lt;/b&gt;" style="shape=parallelogram;perimeter=parallelogramPerimeter;whiteSpace=wrap;html=1;fixedSize=1;fillColor=#dae8fc;strokeColor=#000000;strokeWidth=3;fontFamily=Helvetica;fontSize=11;fontColor=default;labelBackgroundColor=none;" parent="1" vertex="1">
          <mxGeometry x="1426" y="1226.5" width="190.31" height="36" as="geometry" />
        </mxCell>
        <mxCell id="hhZgl5cuM9jdRTXyqVL1-71" value="" style="endArrow=block;html=1;rounded=0;endFill=1;strokeWidth=2;strokeColor=default;align=center;verticalAlign=middle;fontFamily=Helvetica;fontSize=11;fontColor=default;labelBackgroundColor=default;" parent="1" source="hhZgl5cuM9jdRTXyqVL1-53" target="hhZgl5cuM9jdRTXyqVL1-48" edge="1">
          <mxGeometry width="50" height="50" relative="1" as="geometry">
            <mxPoint x="-85.67391664773413" y="1155.5162295595164" as="sourcePoint" />
            <mxPoint x="-104" y="1145.5" as="targetPoint" />
          </mxGeometry>
        </mxCell>
        <mxCell id="hhZgl5cuM9jdRTXyqVL1-72" value="&lt;b&gt;Database Administrator&lt;/b&gt;" style="shape=hexagon;perimeter=hexagonPerimeter2;whiteSpace=wrap;html=1;fixedSize=1;fillColor=#FFF2CC;fontFamily=Helvetica;fontSize=11;fontColor=default;labelBackgroundColor=none;" parent="1" vertex="1">
          <mxGeometry x="-576" y="1448" width="166" height="40" as="geometry" />
        </mxCell>
        <mxCell id="hhZgl5cuM9jdRTXyqVL1-73" value="" style="ellipse;whiteSpace=wrap;html=1;aspect=fixed;fillColor=#FF0000;strokeWidth=2;fontFamily=Helvetica;fontSize=11;fontColor=default;labelBackgroundColor=default;" parent="1" vertex="1">
          <mxGeometry x="-499.99999999999994" y="1383" width="28" height="28" as="geometry" />
        </mxCell>
        <mxCell id="hhZgl5cuM9jdRTXyqVL1-74" value="" style="endArrow=none;html=1;rounded=0;strokeWidth=2;strokeColor=default;align=center;verticalAlign=middle;fontFamily=Helvetica;fontSize=11;fontColor=default;labelBackgroundColor=default;" parent="1" source="hhZgl5cuM9jdRTXyqVL1-72" target="hhZgl5cuM9jdRTXyqVL1-73" edge="1">
          <mxGeometry width="50" height="50" relative="1" as="geometry">
            <mxPoint x="-513.51" y="1458" as="sourcePoint" />
            <mxPoint x="-488.51000000000005" y="1394" as="targetPoint" />
          </mxGeometry>
        </mxCell>
        <mxCell id="hhZgl5cuM9jdRTXyqVL1-75" value="" style="endArrow=block;html=1;rounded=0;endFill=1;strokeWidth=2;strokeColor=default;align=center;verticalAlign=middle;fontFamily=Helvetica;fontSize=11;fontColor=default;labelBackgroundColor=default;" parent="1" source="hhZgl5cuM9jdRTXyqVL1-73" target="hhZgl5cuM9jdRTXyqVL1-52" edge="1">
          <mxGeometry width="50" height="50" relative="1" as="geometry">
            <mxPoint x="-446.31" y="1499" as="sourcePoint" />
            <mxPoint x="-550.31" y="1420" as="targetPoint" />
          </mxGeometry>
        </mxCell>
        <mxCell id="hhZgl5cuM9jdRTXyqVL1-77" value="&lt;b&gt;System Designer&lt;/b&gt;" style="shape=hexagon;perimeter=hexagonPerimeter2;whiteSpace=wrap;html=1;fixedSize=1;fillColor=#FFF2CC;fontFamily=Helvetica;fontSize=11;fontColor=default;labelBackgroundColor=none;" parent="1" vertex="1">
          <mxGeometry x="1180" y="881.47" width="166" height="40" as="geometry" />
        </mxCell>
        <mxCell id="hhZgl5cuM9jdRTXyqVL1-79" value="" style="ellipse;whiteSpace=wrap;html=1;aspect=fixed;fillColor=#FF0000;strokeWidth=2;fontFamily=Helvetica;fontSize=11;fontColor=default;labelBackgroundColor=default;" parent="1" vertex="1">
          <mxGeometry x="1183" y="828" width="28" height="28" as="geometry" />
        </mxCell>
        <mxCell id="hhZgl5cuM9jdRTXyqVL1-81" value="" style="endArrow=none;html=1;rounded=0;strokeWidth=2;strokeColor=default;align=center;verticalAlign=middle;fontFamily=Helvetica;fontSize=11;fontColor=default;labelBackgroundColor=default;" parent="1" source="hhZgl5cuM9jdRTXyqVL1-77" target="hhZgl5cuM9jdRTXyqVL1-79" edge="1">
          <mxGeometry width="50" height="50" relative="1" as="geometry">
            <mxPoint x="1279" y="892.47" as="sourcePoint" />
            <mxPoint x="1304" y="827.97" as="targetPoint" />
          </mxGeometry>
        </mxCell>
        <mxCell id="hhZgl5cuM9jdRTXyqVL1-83" value="" style="endArrow=block;html=1;rounded=0;endFill=1;strokeWidth=2;strokeColor=default;align=center;verticalAlign=middle;fontFamily=Helvetica;fontSize=11;fontColor=default;labelBackgroundColor=default;" parent="1" source="hhZgl5cuM9jdRTXyqVL1-79" target="hhZgl5cuM9jdRTXyqVL1-62" edge="1">
          <mxGeometry width="50" height="50" relative="1" as="geometry">
            <mxPoint x="1078" y="873.47" as="sourcePoint" />
            <mxPoint x="1182" y="799.47" as="targetPoint" />
          </mxGeometry>
        </mxCell>
        <mxCell id="hhZgl5cuM9jdRTXyqVL1-84" value="&lt;b&gt;Login provided&lt;/b&gt;" style="shape=parallelogram;perimeter=parallelogramPerimeter;whiteSpace=wrap;html=1;fixedSize=1;fillColor=#dae8fc;strokeColor=#000000;strokeWidth=3;fontFamily=Helvetica;fontSize=11;fontColor=default;labelBackgroundColor=none;" parent="1" vertex="1">
          <mxGeometry x="700" y="1185.5" width="150" height="36" as="geometry" />
        </mxCell>
        <mxCell id="hhZgl5cuM9jdRTXyqVL1-85" value="" style="ellipse;whiteSpace=wrap;html=1;aspect=fixed;fillColor=#FFD966;strokeWidth=2;fontFamily=Helvetica;fontSize=11;fontColor=default;labelBackgroundColor=default;" parent="1" vertex="1">
          <mxGeometry x="872" y="1128" width="28" height="28" as="geometry" />
        </mxCell>
        <mxCell id="hhZgl5cuM9jdRTXyqVL1-86" value="" style="endArrow=block;html=1;rounded=0;endFill=1;strokeWidth=2;strokeColor=default;align=center;verticalAlign=middle;fontFamily=Helvetica;fontSize=11;fontColor=default;labelBackgroundColor=default;" parent="1" source="hhZgl5cuM9jdRTXyqVL1-85" target="hhZgl5cuM9jdRTXyqVL1-9" edge="1">
          <mxGeometry width="50" height="50" relative="1" as="geometry">
            <mxPoint x="1091.9951849234712" y="1168.2218581716347" as="sourcePoint" />
            <mxPoint x="1051" y="1134.25" as="targetPoint" />
          </mxGeometry>
        </mxCell>
        <mxCell id="hhZgl5cuM9jdRTXyqVL1-87" value="" style="endArrow=none;html=1;rounded=0;strokeWidth=2;strokeColor=default;align=center;verticalAlign=middle;fontFamily=Helvetica;fontSize=11;fontColor=default;labelBackgroundColor=default;" parent="1" source="hhZgl5cuM9jdRTXyqVL1-84" target="hhZgl5cuM9jdRTXyqVL1-85" edge="1">
          <mxGeometry width="50" height="50" relative="1" as="geometry">
            <mxPoint x="1013" y="1227.25" as="sourcePoint" />
            <mxPoint x="1038" y="1163.25" as="targetPoint" />
          </mxGeometry>
        </mxCell>
        <mxCell id="hhZgl5cuM9jdRTXyqVL1-88" style="edgeStyle=none;rounded=0;orthogonalLoop=1;jettySize=auto;html=1;strokeColor=default;strokeWidth=2;align=center;verticalAlign=middle;fontFamily=Helvetica;fontSize=11;fontColor=default;labelBackgroundColor=default;endArrow=none;endFill=0;" parent="1" source="hhZgl5cuM9jdRTXyqVL1-89" target="hhZgl5cuM9jdRTXyqVL1-85" edge="1">
          <mxGeometry relative="1" as="geometry" />
        </mxCell>
        <mxCell id="hhZgl5cuM9jdRTXyqVL1-89" value="&lt;b&gt;2 Factor Auth&lt;/b&gt;" style="shape=parallelogram;perimeter=parallelogramPerimeter;whiteSpace=wrap;html=1;fixedSize=1;fillColor=#dae8fc;strokeColor=#000000;strokeWidth=3;fontFamily=Helvetica;fontSize=11;fontColor=default;labelBackgroundColor=none;" parent="1" vertex="1">
          <mxGeometry x="853" y="1186.5" width="150" height="36" as="geometry" />
        </mxCell>
        <mxCell id="hhZgl5cuM9jdRTXyqVL1-90" value="&lt;b&gt;External service login&lt;/b&gt;" style="shape=parallelogram;perimeter=parallelogramPerimeter;whiteSpace=wrap;html=1;fixedSize=1;fillColor=#dae8fc;strokeColor=#000000;strokeWidth=3;fontFamily=Helvetica;fontSize=11;fontColor=default;labelBackgroundColor=none;" parent="1" vertex="1">
          <mxGeometry x="1007" y="1186.5" width="159" height="36" as="geometry" />
        </mxCell>
        <mxCell id="hhZgl5cuM9jdRTXyqVL1-91" style="edgeStyle=none;rounded=0;orthogonalLoop=1;jettySize=auto;html=1;strokeColor=default;strokeWidth=2;align=center;verticalAlign=middle;fontFamily=Helvetica;fontSize=11;fontColor=default;labelBackgroundColor=default;endArrow=none;endFill=0;" parent="1" source="hhZgl5cuM9jdRTXyqVL1-92" target="hhZgl5cuM9jdRTXyqVL1-89" edge="1">
          <mxGeometry relative="1" as="geometry" />
        </mxCell>
        <mxCell id="hhZgl5cuM9jdRTXyqVL1-92" value="" style="ellipse;whiteSpace=wrap;html=1;aspect=fixed;fillColor=#FFD966;strokeWidth=2;fontFamily=Helvetica;fontSize=11;fontColor=default;labelBackgroundColor=default;" parent="1" vertex="1">
          <mxGeometry x="967" y="1128" width="28" height="28" as="geometry" />
        </mxCell>
        <mxCell id="hhZgl5cuM9jdRTXyqVL1-93" value="" style="endArrow=block;html=1;rounded=0;endFill=1;strokeWidth=2;strokeColor=default;align=center;verticalAlign=middle;fontFamily=Helvetica;fontSize=11;fontColor=default;labelBackgroundColor=default;" parent="1" source="hhZgl5cuM9jdRTXyqVL1-92" target="hhZgl5cuM9jdRTXyqVL1-9" edge="1">
          <mxGeometry width="50" height="50" relative="1" as="geometry">
            <mxPoint x="1118.9951849234712" y="1143.9718581716347" as="sourcePoint" />
            <mxPoint x="1115" y="1099" as="targetPoint" />
          </mxGeometry>
        </mxCell>
        <mxCell id="hhZgl5cuM9jdRTXyqVL1-94" value="" style="endArrow=none;html=1;rounded=0;strokeWidth=2;strokeColor=default;align=center;verticalAlign=middle;fontFamily=Helvetica;fontSize=11;fontColor=default;labelBackgroundColor=default;" parent="1" source="hhZgl5cuM9jdRTXyqVL1-90" target="hhZgl5cuM9jdRTXyqVL1-92" edge="1">
          <mxGeometry width="50" height="50" relative="1" as="geometry">
            <mxPoint x="1118" y="1206" as="sourcePoint" />
            <mxPoint x="1143" y="1142" as="targetPoint" />
          </mxGeometry>
        </mxCell>
        <mxCell id="hhZgl5cuM9jdRTXyqVL1-95" value="&lt;b&gt;SLAs provided&lt;/b&gt;" style="shape=parallelogram;perimeter=parallelogramPerimeter;whiteSpace=wrap;html=1;fixedSize=1;fillColor=#dae8fc;strokeColor=#000000;fontFamily=Helvetica;fontSize=11;fontColor=default;labelBackgroundColor=none;" parent="1" vertex="1">
          <mxGeometry x="543" y="1094.5" width="126" height="38" as="geometry" />
        </mxCell>
        <mxCell id="hhZgl5cuM9jdRTXyqVL1-96" value="&lt;b&gt;Replication of DB servers&lt;/b&gt;" style="shape=parallelogram;perimeter=parallelogramPerimeter;whiteSpace=wrap;html=1;fixedSize=1;fillColor=#dae8fc;strokeColor=#000000;strokeWidth=3;fontFamily=Helvetica;fontSize=11;fontColor=default;labelBackgroundColor=none;" parent="1" vertex="1">
          <mxGeometry x="320" y="1229" width="187" height="36" as="geometry" />
        </mxCell>
        <mxCell id="hhZgl5cuM9jdRTXyqVL1-97" value="&lt;b&gt;System Architect&lt;/b&gt;" style="shape=hexagon;perimeter=hexagonPerimeter2;whiteSpace=wrap;html=1;fixedSize=1;fillColor=#FFF2CC;fontFamily=Helvetica;fontSize=11;fontColor=default;labelBackgroundColor=none;" parent="1" vertex="1">
          <mxGeometry x="265" y="1524" width="135" height="40" as="geometry" />
        </mxCell>
        <mxCell id="hhZgl5cuM9jdRTXyqVL1-98" value="" style="ellipse;whiteSpace=wrap;html=1;aspect=fixed;fillColor=#FF0000;strokeWidth=2;fontFamily=Helvetica;fontSize=11;fontColor=default;labelBackgroundColor=default;direction=south;" parent="1" vertex="1">
          <mxGeometry x="372" y="1317" width="28" height="28" as="geometry" />
        </mxCell>
        <mxCell id="hhZgl5cuM9jdRTXyqVL1-99" value="" style="endArrow=none;html=1;rounded=0;strokeWidth=2;strokeColor=default;align=center;verticalAlign=middle;fontFamily=Helvetica;fontSize=11;fontColor=default;labelBackgroundColor=default;" parent="1" source="hhZgl5cuM9jdRTXyqVL1-97" target="hhZgl5cuM9jdRTXyqVL1-98" edge="1">
          <mxGeometry width="50" height="50" relative="1" as="geometry">
            <mxPoint x="351.29999999999995" y="1385.5" as="sourcePoint" />
            <mxPoint x="376.29999999999995" y="1321.5" as="targetPoint" />
          </mxGeometry>
        </mxCell>
        <mxCell id="hhZgl5cuM9jdRTXyqVL1-100" value="" style="endArrow=block;html=1;rounded=0;endFill=1;strokeWidth=2;strokeColor=default;align=center;verticalAlign=middle;fontFamily=Helvetica;fontSize=11;fontColor=default;labelBackgroundColor=default;" parent="1" source="hhZgl5cuM9jdRTXyqVL1-98" target="hhZgl5cuM9jdRTXyqVL1-96" edge="1">
          <mxGeometry width="50" height="50" relative="1" as="geometry">
            <mxPoint x="423.5" y="1346.5" as="sourcePoint" />
            <mxPoint x="279.7317880794699" y="1451.5" as="targetPoint" />
          </mxGeometry>
        </mxCell>
        <mxCell id="hhZgl5cuM9jdRTXyqVL1-101" value="" style="ellipse;whiteSpace=wrap;html=1;aspect=fixed;fillColor=#FFD966;strokeWidth=2;fontFamily=Helvetica;fontSize=11;fontColor=default;labelBackgroundColor=default;" parent="1" vertex="1">
          <mxGeometry x="309.5" y="1158.5" width="28" height="28" as="geometry" />
        </mxCell>
        <mxCell id="hhZgl5cuM9jdRTXyqVL1-102" value="" style="endArrow=block;html=1;rounded=0;endFill=1;strokeWidth=2;strokeColor=default;align=center;verticalAlign=middle;fontFamily=Helvetica;fontSize=11;fontColor=default;labelBackgroundColor=default;" parent="1" source="hhZgl5cuM9jdRTXyqVL1-101" target="hhZgl5cuM9jdRTXyqVL1-33" edge="1">
          <mxGeometry width="50" height="50" relative="1" as="geometry">
            <mxPoint x="381.995184923471" y="1181.4718581716347" as="sourcePoint" />
            <mxPoint x="378" y="1136.5" as="targetPoint" />
          </mxGeometry>
        </mxCell>
        <mxCell id="hhZgl5cuM9jdRTXyqVL1-103" value="" style="endArrow=none;html=1;rounded=0;strokeWidth=2;strokeColor=default;align=center;verticalAlign=middle;fontFamily=Helvetica;fontSize=11;fontColor=default;labelBackgroundColor=default;" parent="1" source="hhZgl5cuM9jdRTXyqVL1-96" target="hhZgl5cuM9jdRTXyqVL1-101" edge="1">
          <mxGeometry width="50" height="50" relative="1" as="geometry">
            <mxPoint x="381" y="1243.5" as="sourcePoint" />
            <mxPoint x="406" y="1179.5" as="targetPoint" />
          </mxGeometry>
        </mxCell>
        <mxCell id="hhZgl5cuM9jdRTXyqVL1-104" value="&lt;b&gt;Register patient&lt;/b&gt;" style="shape=parallelogram;perimeter=parallelogramPerimeter;whiteSpace=wrap;html=1;fixedSize=1;fillColor=#dae8fc;strokeColor=#000000;fontFamily=Helvetica;fontSize=11;fontColor=default;labelBackgroundColor=none;" parent="1" vertex="1">
          <mxGeometry x="-3417" y="791.5" width="137" height="29" as="geometry" />
        </mxCell>
        <mxCell id="hhZgl5cuM9jdRTXyqVL1-105" value="&lt;b&gt;Register doctor&lt;/b&gt;" style="shape=parallelogram;perimeter=parallelogramPerimeter;whiteSpace=wrap;html=1;fixedSize=1;fillColor=#dae8fc;strokeColor=#000000;fontFamily=Helvetica;fontSize=11;fontColor=default;labelBackgroundColor=none;" parent="1" vertex="1">
          <mxGeometry x="-3283" y="790.25" width="137" height="29" as="geometry" />
        </mxCell>
        <mxCell id="hhZgl5cuM9jdRTXyqVL1-106" value="&lt;b&gt;Schedule appointment&lt;/b&gt;" style="shape=parallelogram;perimeter=parallelogramPerimeter;whiteSpace=wrap;html=1;fixedSize=1;fillColor=#dae8fc;strokeColor=#000000;fontFamily=Helvetica;fontSize=11;fontColor=default;labelBackgroundColor=none;" parent="1" vertex="1">
          <mxGeometry x="-3110" y="788.25" width="152" height="29" as="geometry" />
        </mxCell>
        <mxCell id="hhZgl5cuM9jdRTXyqVL1-107" value="&lt;b&gt;Schedule exam&lt;/b&gt;" style="shape=parallelogram;perimeter=parallelogramPerimeter;whiteSpace=wrap;html=1;fixedSize=1;fillColor=#dae8fc;strokeColor=#000000;fontFamily=Helvetica;fontSize=11;fontColor=default;labelBackgroundColor=none;" parent="1" vertex="1">
          <mxGeometry x="-2958" y="791.5" width="126" height="29" as="geometry" />
        </mxCell>
        <mxCell id="hhZgl5cuM9jdRTXyqVL1-108" value="&lt;b&gt;Check-in&lt;/b&gt;" style="shape=parallelogram;perimeter=parallelogramPerimeter;whiteSpace=wrap;html=1;fixedSize=1;fillColor=#dae8fc;strokeColor=#000000;fontFamily=Helvetica;fontSize=11;fontColor=default;labelBackgroundColor=none;" parent="1" vertex="1">
          <mxGeometry x="-2822" y="788.25" width="126" height="29" as="geometry" />
        </mxCell>
        <mxCell id="hhZgl5cuM9jdRTXyqVL1-109" style="edgeStyle=none;rounded=0;orthogonalLoop=1;jettySize=auto;html=1;strokeColor=default;strokeWidth=2;align=center;verticalAlign=middle;fontFamily=Helvetica;fontSize=11;fontColor=default;labelBackgroundColor=default;endArrow=none;endFill=0;" parent="1" source="hhZgl5cuM9jdRTXyqVL1-113" target="hhZgl5cuM9jdRTXyqVL1-105" edge="1">
          <mxGeometry relative="1" as="geometry" />
        </mxCell>
        <mxCell id="hhZgl5cuM9jdRTXyqVL1-110" style="edgeStyle=none;rounded=0;orthogonalLoop=1;jettySize=auto;html=1;strokeColor=default;strokeWidth=2;align=center;verticalAlign=middle;fontFamily=Helvetica;fontSize=11;fontColor=default;labelBackgroundColor=default;endArrow=none;endFill=0;" parent="1" source="hhZgl5cuM9jdRTXyqVL1-113" target="hhZgl5cuM9jdRTXyqVL1-106" edge="1">
          <mxGeometry relative="1" as="geometry" />
        </mxCell>
        <mxCell id="hhZgl5cuM9jdRTXyqVL1-111" style="edgeStyle=none;rounded=0;orthogonalLoop=1;jettySize=auto;html=1;strokeColor=default;strokeWidth=2;align=center;verticalAlign=middle;fontFamily=Helvetica;fontSize=11;fontColor=default;labelBackgroundColor=default;endArrow=none;endFill=0;" parent="1" source="hhZgl5cuM9jdRTXyqVL1-113" target="hhZgl5cuM9jdRTXyqVL1-107" edge="1">
          <mxGeometry relative="1" as="geometry" />
        </mxCell>
        <mxCell id="hhZgl5cuM9jdRTXyqVL1-112" style="edgeStyle=none;rounded=0;orthogonalLoop=1;jettySize=auto;html=1;strokeColor=default;strokeWidth=2;align=center;verticalAlign=middle;fontFamily=Helvetica;fontSize=11;fontColor=default;labelBackgroundColor=default;endArrow=none;endFill=0;" parent="1" source="hhZgl5cuM9jdRTXyqVL1-113" target="hhZgl5cuM9jdRTXyqVL1-108" edge="1">
          <mxGeometry relative="1" as="geometry" />
        </mxCell>
        <mxCell id="hhZgl5cuM9jdRTXyqVL1-113" value="" style="ellipse;whiteSpace=wrap;html=1;aspect=fixed;fillColor=#FFD966;strokeWidth=2;fontFamily=Helvetica;fontSize=11;fontColor=default;labelBackgroundColor=default;" parent="1" vertex="1">
          <mxGeometry x="-3043.5" y="716.5" width="28" height="28" as="geometry" />
        </mxCell>
        <mxCell id="hhZgl5cuM9jdRTXyqVL1-114" value="" style="endArrow=block;html=1;rounded=0;endFill=1;strokeWidth=2;strokeColor=default;align=center;verticalAlign=middle;fontFamily=Helvetica;fontSize=11;fontColor=default;labelBackgroundColor=default;" parent="1" source="hhZgl5cuM9jdRTXyqVL1-113" target="hhZgl5cuM9jdRTXyqVL1-30" edge="1">
          <mxGeometry width="50" height="50" relative="1" as="geometry">
            <mxPoint x="-140.00481507652898" y="655.9718581716346" as="sourcePoint" />
            <mxPoint x="-144" y="611" as="targetPoint" />
          </mxGeometry>
        </mxCell>
        <mxCell id="hhZgl5cuM9jdRTXyqVL1-115" value="" style="endArrow=none;html=1;rounded=0;strokeWidth=2;strokeColor=default;align=center;verticalAlign=middle;fontFamily=Helvetica;fontSize=11;fontColor=default;labelBackgroundColor=default;" parent="1" source="hhZgl5cuM9jdRTXyqVL1-104" target="hhZgl5cuM9jdRTXyqVL1-113" edge="1">
          <mxGeometry width="50" height="50" relative="1" as="geometry">
            <mxPoint x="-2684" y="811.5" as="sourcePoint" />
            <mxPoint x="-2659" y="747.5" as="targetPoint" />
          </mxGeometry>
        </mxCell>
        <mxCell id="hhZgl5cuM9jdRTXyqVL1-116" value="&lt;b&gt;Login controller&lt;/b&gt;" style="shape=hexagon;perimeter=hexagonPerimeter2;whiteSpace=wrap;html=1;fixedSize=1;fillColor=#FFF2CC;fontFamily=Helvetica;fontSize=11;fontColor=default;labelBackgroundColor=none;" parent="1" vertex="1">
          <mxGeometry x="866" y="1359.75" width="124" height="40" as="geometry" />
        </mxCell>
        <mxCell id="hhZgl5cuM9jdRTXyqVL1-117" value="" style="ellipse;whiteSpace=wrap;html=1;aspect=fixed;fillColor=#FF0000;strokeWidth=2;fontFamily=Helvetica;fontSize=11;fontColor=default;labelBackgroundColor=default;" parent="1" vertex="1">
          <mxGeometry x="822" y="1310.25" width="28" height="28" as="geometry" />
        </mxCell>
        <mxCell id="hhZgl5cuM9jdRTXyqVL1-118" value="" style="endArrow=block;html=1;rounded=0;endFill=1;strokeWidth=2;strokeColor=default;align=center;verticalAlign=middle;fontFamily=Helvetica;fontSize=11;fontColor=default;labelBackgroundColor=default;" parent="1" source="hhZgl5cuM9jdRTXyqVL1-117" target="hhZgl5cuM9jdRTXyqVL1-84" edge="1">
          <mxGeometry width="50" height="50" relative="1" as="geometry">
            <mxPoint x="867.995184923471" y="1398.2218581716347" as="sourcePoint" />
            <mxPoint x="864" y="1353.25" as="targetPoint" />
          </mxGeometry>
        </mxCell>
        <mxCell id="hhZgl5cuM9jdRTXyqVL1-119" value="" style="endArrow=none;html=1;rounded=0;strokeWidth=2;strokeColor=default;align=center;verticalAlign=middle;fontFamily=Helvetica;fontSize=11;fontColor=default;labelBackgroundColor=default;" parent="1" source="hhZgl5cuM9jdRTXyqVL1-116" target="hhZgl5cuM9jdRTXyqVL1-117" edge="1">
          <mxGeometry width="50" height="50" relative="1" as="geometry">
            <mxPoint x="867" y="1460.25" as="sourcePoint" />
            <mxPoint x="892" y="1396.25" as="targetPoint" />
          </mxGeometry>
        </mxCell>
        <mxCell id="hhZgl5cuM9jdRTXyqVL1-122" value="&lt;b&gt;Settings controller&lt;/b&gt;" style="shape=hexagon;perimeter=hexagonPerimeter2;whiteSpace=wrap;html=1;fixedSize=1;fillColor=#FFF2CC;fontFamily=Helvetica;fontSize=11;fontColor=default;labelBackgroundColor=none;" parent="1" vertex="1">
          <mxGeometry x="1454.69" y="1343" width="138" height="40" as="geometry" />
        </mxCell>
        <mxCell id="hhZgl5cuM9jdRTXyqVL1-123" value="" style="ellipse;whiteSpace=wrap;html=1;aspect=fixed;fillColor=#FF0000;strokeWidth=2;fontFamily=Helvetica;fontSize=11;fontColor=default;labelBackgroundColor=default;" parent="1" vertex="1">
          <mxGeometry x="1509.19" y="1294" width="28" height="28" as="geometry" />
        </mxCell>
        <mxCell id="hhZgl5cuM9jdRTXyqVL1-124" value="" style="endArrow=block;html=1;rounded=0;endFill=1;strokeWidth=2;strokeColor=default;align=center;verticalAlign=middle;fontFamily=Helvetica;fontSize=11;fontColor=default;labelBackgroundColor=default;" parent="1" source="hhZgl5cuM9jdRTXyqVL1-123" target="hhZgl5cuM9jdRTXyqVL1-70" edge="1">
          <mxGeometry width="50" height="50" relative="1" as="geometry">
            <mxPoint x="1703.335184923471" y="1312.2218581716347" as="sourcePoint" />
            <mxPoint x="1533.88" y="1261" as="targetPoint" />
          </mxGeometry>
        </mxCell>
        <mxCell id="hhZgl5cuM9jdRTXyqVL1-125" value="" style="endArrow=none;html=1;rounded=0;strokeWidth=2;strokeColor=default;align=center;verticalAlign=middle;fontFamily=Helvetica;fontSize=11;fontColor=default;labelBackgroundColor=default;" parent="1" source="hhZgl5cuM9jdRTXyqVL1-122" target="hhZgl5cuM9jdRTXyqVL1-123" edge="1">
          <mxGeometry width="50" height="50" relative="1" as="geometry">
            <mxPoint x="1689.65" y="1374.25" as="sourcePoint" />
            <mxPoint x="1714.65" y="1310.25" as="targetPoint" />
          </mxGeometry>
        </mxCell>
        <mxCell id="hhZgl5cuM9jdRTXyqVL1-126" value="&lt;b&gt;Help controller&lt;/b&gt;" style="shape=hexagon;perimeter=hexagonPerimeter2;whiteSpace=wrap;html=1;fixedSize=1;fillColor=#FFF2CC;fontFamily=Helvetica;fontSize=11;fontColor=default;labelBackgroundColor=none;" parent="1" vertex="1">
          <mxGeometry x="1643.69" y="1343.25" width="122" height="40" as="geometry" />
        </mxCell>
        <mxCell id="hhZgl5cuM9jdRTXyqVL1-127" value="" style="ellipse;whiteSpace=wrap;html=1;aspect=fixed;fillColor=#FF0000;strokeWidth=2;fontFamily=Helvetica;fontSize=11;fontColor=default;labelBackgroundColor=default;" parent="1" vertex="1">
          <mxGeometry x="1690.19" y="1294.25" width="28" height="28" as="geometry" />
        </mxCell>
        <mxCell id="hhZgl5cuM9jdRTXyqVL1-128" value="" style="endArrow=block;html=1;rounded=0;endFill=1;strokeWidth=2;strokeColor=default;align=center;verticalAlign=middle;fontFamily=Helvetica;fontSize=11;fontColor=default;labelBackgroundColor=default;" parent="1" source="hhZgl5cuM9jdRTXyqVL1-127" target="hhZgl5cuM9jdRTXyqVL1-43" edge="1">
          <mxGeometry width="50" height="50" relative="1" as="geometry">
            <mxPoint x="1884.335184923471" y="1312.4718581716347" as="sourcePoint" />
            <mxPoint x="1704.69" y="1263.25" as="targetPoint" />
          </mxGeometry>
        </mxCell>
        <mxCell id="hhZgl5cuM9jdRTXyqVL1-129" value="" style="endArrow=none;html=1;rounded=0;strokeWidth=2;strokeColor=default;align=center;verticalAlign=middle;fontFamily=Helvetica;fontSize=11;fontColor=default;labelBackgroundColor=default;" parent="1" source="hhZgl5cuM9jdRTXyqVL1-126" target="hhZgl5cuM9jdRTXyqVL1-127" edge="1">
          <mxGeometry width="50" height="50" relative="1" as="geometry">
            <mxPoint x="1870.65" y="1374.5" as="sourcePoint" />
            <mxPoint x="1895.65" y="1310.5" as="targetPoint" />
          </mxGeometry>
        </mxCell>
        <mxCell id="hhZgl5cuM9jdRTXyqVL1-131" value="&lt;b&gt;Disaster recovery plan&lt;/b&gt;" style="shape=parallelogram;perimeter=parallelogramPerimeter;whiteSpace=wrap;html=1;fixedSize=1;fillColor=#dae8fc;strokeColor=#000000;strokeWidth=3;fontFamily=Helvetica;fontSize=11;fontColor=default;labelBackgroundColor=none;" parent="1" vertex="1">
          <mxGeometry x="527" y="1233.5" width="158" height="36" as="geometry" />
        </mxCell>
        <mxCell id="hhZgl5cuM9jdRTXyqVL1-132" value="" style="ellipse;whiteSpace=wrap;html=1;aspect=fixed;fillColor=#FFD966;strokeWidth=2;fontFamily=Helvetica;fontSize=11;fontColor=default;labelBackgroundColor=default;" parent="1" vertex="1">
          <mxGeometry x="592" y="1169" width="28" height="28" as="geometry" />
        </mxCell>
        <mxCell id="hhZgl5cuM9jdRTXyqVL1-133" value="" style="endArrow=block;html=1;rounded=0;endFill=1;strokeWidth=2;strokeColor=default;align=center;verticalAlign=middle;fontFamily=Helvetica;fontSize=11;fontColor=default;labelBackgroundColor=default;" parent="1" source="hhZgl5cuM9jdRTXyqVL1-132" target="hhZgl5cuM9jdRTXyqVL1-95" edge="1">
          <mxGeometry width="50" height="50" relative="1" as="geometry">
            <mxPoint x="726.995184923471" y="1198.9718581716347" as="sourcePoint" />
            <mxPoint x="723" y="1154" as="targetPoint" />
          </mxGeometry>
        </mxCell>
        <mxCell id="hhZgl5cuM9jdRTXyqVL1-134" value="" style="endArrow=none;html=1;rounded=0;strokeWidth=2;strokeColor=default;align=center;verticalAlign=middle;fontFamily=Helvetica;fontSize=11;fontColor=default;labelBackgroundColor=default;" parent="1" source="hhZgl5cuM9jdRTXyqVL1-131" target="hhZgl5cuM9jdRTXyqVL1-132" edge="1">
          <mxGeometry width="50" height="50" relative="1" as="geometry">
            <mxPoint x="726" y="1261" as="sourcePoint" />
            <mxPoint x="751" y="1197" as="targetPoint" />
          </mxGeometry>
        </mxCell>
        <mxCell id="hhZgl5cuM9jdRTXyqVL1-135" value="" style="ellipse;whiteSpace=wrap;html=1;aspect=fixed;fillColor=#FF0000;strokeWidth=2;fontFamily=Helvetica;fontSize=11;fontColor=default;labelBackgroundColor=default;" parent="1" vertex="1">
          <mxGeometry x="566" y="1345" width="28" height="28" as="geometry" />
        </mxCell>
        <mxCell id="hhZgl5cuM9jdRTXyqVL1-136" value="" style="endArrow=block;html=1;rounded=0;endFill=1;strokeWidth=2;strokeColor=default;align=center;verticalAlign=middle;fontFamily=Helvetica;fontSize=11;fontColor=default;labelBackgroundColor=default;" parent="1" source="hhZgl5cuM9jdRTXyqVL1-135" target="hhZgl5cuM9jdRTXyqVL1-131" edge="1">
          <mxGeometry width="50" height="50" relative="1" as="geometry">
            <mxPoint x="598.995184923471" y="1325.4718581716347" as="sourcePoint" />
            <mxPoint x="595" y="1280.5" as="targetPoint" />
          </mxGeometry>
        </mxCell>
        <mxCell id="hhZgl5cuM9jdRTXyqVL1-137" value="" style="endArrow=none;html=1;rounded=0;strokeWidth=2;strokeColor=default;align=center;verticalAlign=middle;fontFamily=Helvetica;fontSize=11;fontColor=default;labelBackgroundColor=default;" parent="1" source="hhZgl5cuM9jdRTXyqVL1-97" target="hhZgl5cuM9jdRTXyqVL1-135" edge="1">
          <mxGeometry width="50" height="50" relative="1" as="geometry">
            <mxPoint x="523" y="1381.5" as="sourcePoint" />
            <mxPoint x="548" y="1317.5" as="targetPoint" />
          </mxGeometry>
        </mxCell>
        <mxCell id="oKX_38UBTueQ7XM7UWsh-29" value="&lt;b&gt;Schedule online appointment&lt;/b&gt;" style="shape=parallelogram;perimeter=parallelogramPerimeter;whiteSpace=wrap;html=1;fixedSize=1;fillColor=#dae8fc;strokeColor=#000000;fontFamily=Helvetica;fontSize=11;fontColor=default;labelBackgroundColor=none;" parent="1" vertex="1">
          <mxGeometry x="-2906" y="936.5" width="207" height="29" as="geometry" />
        </mxCell>
        <mxCell id="oKX_38UBTueQ7XM7UWsh-30" value="&lt;b&gt;See list of doctors&lt;/b&gt;" style="shape=parallelogram;perimeter=parallelogramPerimeter;whiteSpace=wrap;html=1;fixedSize=1;fillColor=#dae8fc;strokeColor=#000000;fontFamily=Helvetica;fontSize=11;fontColor=default;labelBackgroundColor=none;" parent="1" vertex="1">
          <mxGeometry x="-2705" y="936.5" width="207" height="29" as="geometry" />
        </mxCell>
        <mxCell id="oKX_38UBTueQ7XM7UWsh-31" value="&lt;b&gt;Doctor sees patient information&lt;/b&gt;" style="shape=parallelogram;perimeter=parallelogramPerimeter;whiteSpace=wrap;html=1;fixedSize=1;fillColor=#dae8fc;strokeColor=#000000;fontFamily=Helvetica;fontSize=11;fontColor=default;labelBackgroundColor=none;" parent="1" vertex="1">
          <mxGeometry x="-2502" y="936.5" width="207" height="29" as="geometry" />
        </mxCell>
        <mxCell id="oKX_38UBTueQ7XM7UWsh-32" value="&lt;b&gt;See list of clinics&lt;/b&gt;" style="shape=parallelogram;perimeter=parallelogramPerimeter;whiteSpace=wrap;html=1;fixedSize=1;fillColor=#dae8fc;strokeColor=#000000;fontFamily=Helvetica;fontSize=11;fontColor=default;labelBackgroundColor=none;" parent="1" vertex="1">
          <mxGeometry x="-2305" y="936.5" width="207" height="29" as="geometry" />
        </mxCell>
        <mxCell id="oKX_38UBTueQ7XM7UWsh-33" value="&lt;b&gt;Send appointment reminders&lt;/b&gt;" style="shape=parallelogram;perimeter=parallelogramPerimeter;whiteSpace=wrap;html=1;fixedSize=1;fillColor=#dae8fc;strokeColor=#000000;fontFamily=Helvetica;fontSize=11;fontColor=default;labelBackgroundColor=none;" parent="1" vertex="1">
          <mxGeometry x="-2107" y="935.5" width="207" height="29" as="geometry" />
        </mxCell>
        <mxCell id="oKX_38UBTueQ7XM7UWsh-34" value="&lt;b&gt;See list of appointments&lt;/b&gt;" style="shape=parallelogram;perimeter=parallelogramPerimeter;whiteSpace=wrap;html=1;fixedSize=1;fillColor=#dae8fc;strokeColor=#000000;fontFamily=Helvetica;fontSize=11;fontColor=default;labelBackgroundColor=none;" parent="1" vertex="1">
          <mxGeometry x="-1907" y="934.5" width="207" height="29" as="geometry" />
        </mxCell>
        <mxCell id="oKX_38UBTueQ7XM7UWsh-35" value="&lt;b&gt;Prescribe medicine&lt;/b&gt;" style="shape=parallelogram;perimeter=parallelogramPerimeter;whiteSpace=wrap;html=1;fixedSize=1;fillColor=#dae8fc;strokeColor=#000000;fontFamily=Helvetica;fontSize=11;fontColor=default;labelBackgroundColor=none;" parent="1" vertex="1">
          <mxGeometry x="-1709" y="934" width="207" height="29" as="geometry" />
        </mxCell>
        <mxCell id="oKX_38UBTueQ7XM7UWsh-36" value="" style="ellipse;whiteSpace=wrap;html=1;aspect=fixed;fillColor=#FFD966;strokeWidth=2;" parent="1" vertex="1">
          <mxGeometry x="-2170" y="744.5" width="28" height="28" as="geometry" />
        </mxCell>
        <mxCell id="oKX_38UBTueQ7XM7UWsh-37" value="" style="endArrow=block;html=1;rounded=0;endFill=1;strokeWidth=2;" parent="1" source="oKX_38UBTueQ7XM7UWsh-36" target="hhZgl5cuM9jdRTXyqVL1-31" edge="1">
          <mxGeometry width="50" height="50" relative="1" as="geometry">
            <mxPoint x="-2371.0048150765288" y="914.4718581716346" as="sourcePoint" />
            <mxPoint x="-2375" y="869.5" as="targetPoint" />
          </mxGeometry>
        </mxCell>
        <mxCell id="oKX_38UBTueQ7XM7UWsh-38" value="" style="endArrow=none;html=1;rounded=0;strokeWidth=2;" parent="1" source="oKX_38UBTueQ7XM7UWsh-29" target="oKX_38UBTueQ7XM7UWsh-36" edge="1">
          <mxGeometry width="50" height="50" relative="1" as="geometry">
            <mxPoint x="-2139.0013290464844" y="892.78" as="sourcePoint" />
            <mxPoint x="-1954.8719217298817" y="797.2179594672602" as="targetPoint" />
          </mxGeometry>
        </mxCell>
        <mxCell id="oKX_38UBTueQ7XM7UWsh-39" value="" style="endArrow=none;html=1;rounded=0;strokeWidth=2;" parent="1" source="oKX_38UBTueQ7XM7UWsh-30" target="oKX_38UBTueQ7XM7UWsh-36" edge="1">
          <mxGeometry width="50" height="50" relative="1" as="geometry">
            <mxPoint x="-2043" y="913.5" as="sourcePoint" />
            <mxPoint x="-1858" y="817.5" as="targetPoint" />
          </mxGeometry>
        </mxCell>
        <mxCell id="oKX_38UBTueQ7XM7UWsh-40" value="" style="endArrow=none;html=1;rounded=0;strokeWidth=2;" parent="1" source="oKX_38UBTueQ7XM7UWsh-31" target="oKX_38UBTueQ7XM7UWsh-36" edge="1">
          <mxGeometry width="50" height="50" relative="1" as="geometry">
            <mxPoint x="-2033" y="923.5" as="sourcePoint" />
            <mxPoint x="-1848" y="827.5" as="targetPoint" />
          </mxGeometry>
        </mxCell>
        <mxCell id="oKX_38UBTueQ7XM7UWsh-41" value="" style="endArrow=none;html=1;rounded=0;strokeWidth=2;" parent="1" source="oKX_38UBTueQ7XM7UWsh-32" target="oKX_38UBTueQ7XM7UWsh-36" edge="1">
          <mxGeometry width="50" height="50" relative="1" as="geometry">
            <mxPoint x="-2023" y="933.5" as="sourcePoint" />
            <mxPoint x="-1838" y="837.5" as="targetPoint" />
          </mxGeometry>
        </mxCell>
        <mxCell id="oKX_38UBTueQ7XM7UWsh-42" value="" style="endArrow=none;html=1;rounded=0;strokeWidth=2;" parent="1" source="oKX_38UBTueQ7XM7UWsh-33" target="oKX_38UBTueQ7XM7UWsh-36" edge="1">
          <mxGeometry width="50" height="50" relative="1" as="geometry">
            <mxPoint x="-2013" y="943.5" as="sourcePoint" />
            <mxPoint x="-1828" y="847.5" as="targetPoint" />
          </mxGeometry>
        </mxCell>
        <mxCell id="oKX_38UBTueQ7XM7UWsh-43" value="" style="endArrow=none;html=1;rounded=0;strokeWidth=2;" parent="1" source="oKX_38UBTueQ7XM7UWsh-34" target="oKX_38UBTueQ7XM7UWsh-36" edge="1">
          <mxGeometry width="50" height="50" relative="1" as="geometry">
            <mxPoint x="-2003" y="953.5" as="sourcePoint" />
            <mxPoint x="-1818" y="857.5" as="targetPoint" />
          </mxGeometry>
        </mxCell>
        <mxCell id="oKX_38UBTueQ7XM7UWsh-44" value="" style="endArrow=none;html=1;rounded=0;strokeWidth=2;" parent="1" source="oKX_38UBTueQ7XM7UWsh-35" target="oKX_38UBTueQ7XM7UWsh-36" edge="1">
          <mxGeometry width="50" height="50" relative="1" as="geometry">
            <mxPoint x="-1993" y="963.5" as="sourcePoint" />
            <mxPoint x="-1820" y="870.5" as="targetPoint" />
          </mxGeometry>
        </mxCell>
        <mxCell id="oKX_38UBTueQ7XM7UWsh-50" value="&lt;b&gt;Review Doctor&lt;/b&gt;" style="shape=parallelogram;perimeter=parallelogramPerimeter;whiteSpace=wrap;html=1;fixedSize=1;fillColor=#dae8fc;strokeColor=#000000;fontFamily=Helvetica;fontSize=11;fontColor=default;labelBackgroundColor=none;" parent="1" vertex="1">
          <mxGeometry x="-1592" y="833.5" width="207" height="29" as="geometry" />
        </mxCell>
        <mxCell id="oKX_38UBTueQ7XM7UWsh-51" value="" style="ellipse;whiteSpace=wrap;html=1;aspect=fixed;fillColor=#FFD966;strokeWidth=2;" parent="1" vertex="1">
          <mxGeometry x="-1290" y="766.5" width="28" height="28" as="geometry" />
        </mxCell>
        <mxCell id="oKX_38UBTueQ7XM7UWsh-52" value="" style="endArrow=block;html=1;rounded=0;endFill=1;strokeWidth=2;" parent="1" source="oKX_38UBTueQ7XM7UWsh-51" target="hhZgl5cuM9jdRTXyqVL1-32" edge="1">
          <mxGeometry width="50" height="50" relative="1" as="geometry">
            <mxPoint x="-1247.934815076529" y="824.4718581716346" as="sourcePoint" />
            <mxPoint x="-1264.6511895910778" y="712.5" as="targetPoint" />
          </mxGeometry>
        </mxCell>
        <mxCell id="oKX_38UBTueQ7XM7UWsh-53" value="" style="endArrow=none;html=1;rounded=0;strokeWidth=2;" parent="1" source="oKX_38UBTueQ7XM7UWsh-50" target="oKX_38UBTueQ7XM7UWsh-51" edge="1">
          <mxGeometry width="50" height="50" relative="1" as="geometry">
            <mxPoint x="-1396.0042035327967" y="820.3575951225546" as="sourcePoint" />
            <mxPoint x="-1223.93" y="822.5" as="targetPoint" />
          </mxGeometry>
        </mxCell>
        <mxCell id="oKX_38UBTueQ7XM7UWsh-54" value="&lt;b&gt;Virtual appointments&lt;/b&gt;" style="shape=parallelogram;perimeter=parallelogramPerimeter;whiteSpace=wrap;html=1;fixedSize=1;fillColor=#dae8fc;strokeColor=#000000;fontFamily=Helvetica;fontSize=11;fontColor=default;labelBackgroundColor=none;" parent="1" vertex="1">
          <mxGeometry x="-1379.5" y="833.5" width="207" height="29" as="geometry" />
        </mxCell>
        <mxCell id="oKX_38UBTueQ7XM7UWsh-55" value="&lt;b&gt;Collect analytics from equipements&lt;/b&gt;" style="shape=parallelogram;perimeter=parallelogramPerimeter;whiteSpace=wrap;html=1;fixedSize=1;fillColor=#dae8fc;strokeColor=#000000;fontFamily=Helvetica;fontSize=11;fontColor=default;labelBackgroundColor=none;" parent="1" vertex="1">
          <mxGeometry x="-1163" y="833.5" width="236" height="29" as="geometry" />
        </mxCell>
        <mxCell id="oKX_38UBTueQ7XM7UWsh-56" value="" style="endArrow=none;html=1;rounded=0;strokeWidth=2;" parent="1" source="oKX_38UBTueQ7XM7UWsh-54" target="oKX_38UBTueQ7XM7UWsh-51" edge="1">
          <mxGeometry width="50" height="50" relative="1" as="geometry">
            <mxPoint x="-1372" y="843.5" as="sourcePoint" />
            <mxPoint x="-1279" y="796.5" as="targetPoint" />
          </mxGeometry>
        </mxCell>
        <mxCell id="oKX_38UBTueQ7XM7UWsh-57" value="" style="endArrow=none;html=1;rounded=0;strokeWidth=2;" parent="1" source="oKX_38UBTueQ7XM7UWsh-55" target="oKX_38UBTueQ7XM7UWsh-51" edge="1">
          <mxGeometry width="50" height="50" relative="1" as="geometry">
            <mxPoint x="-1095" y="786.5" as="sourcePoint" />
            <mxPoint x="-1255" y="799.5" as="targetPoint" />
            <Array as="points" />
          </mxGeometry>
        </mxCell>
        <mxCell id="oKX_38UBTueQ7XM7UWsh-69" value="&lt;b&gt;Caching&lt;/b&gt;" style="shape=parallelogram;perimeter=parallelogramPerimeter;whiteSpace=wrap;html=1;fixedSize=1;fillColor=#dae8fc;strokeColor=#000000;strokeWidth=3;fontFamily=Helvetica;fontSize=11;fontColor=default;labelBackgroundColor=none;" parent="1" vertex="1">
          <mxGeometry x="-216.00000000000006" y="1300.5" width="150" height="36" as="geometry" />
        </mxCell>
        <mxCell id="oKX_38UBTueQ7XM7UWsh-70" value="" style="endArrow=none;html=1;rounded=0;strokeWidth=2;strokeColor=default;align=center;verticalAlign=middle;fontFamily=Helvetica;fontSize=11;fontColor=default;labelBackgroundColor=default;" parent="1" source="oKX_38UBTueQ7XM7UWsh-69" target="hhZgl5cuM9jdRTXyqVL1-53" edge="1">
          <mxGeometry width="50" height="50" relative="1" as="geometry">
            <mxPoint x="-134" y="1242.5" as="sourcePoint" />
            <mxPoint x="-85" y="1199.5" as="targetPoint" />
          </mxGeometry>
        </mxCell>
        <mxCell id="oKX_38UBTueQ7XM7UWsh-78" value="" style="ellipse;whiteSpace=wrap;html=1;aspect=fixed;fillColor=#FF0000;strokeWidth=2;fontFamily=Helvetica;fontSize=11;fontColor=default;labelBackgroundColor=default;" parent="1" vertex="1">
          <mxGeometry x="-9.5" y="1488" width="28" height="28" as="geometry" />
        </mxCell>
        <mxCell id="oKX_38UBTueQ7XM7UWsh-79" value="" style="endArrow=block;html=1;rounded=0;endFill=1;strokeWidth=2;strokeColor=default;align=center;verticalAlign=middle;fontFamily=Helvetica;fontSize=11;fontColor=default;labelBackgroundColor=default;" parent="1" source="oKX_38UBTueQ7XM7UWsh-78" target="oKX_38UBTueQ7XM7UWsh-69" edge="1">
          <mxGeometry width="50" height="50" relative="1" as="geometry">
            <mxPoint x="90" y="1370" as="sourcePoint" />
            <mxPoint x="167" y="1211.5" as="targetPoint" />
          </mxGeometry>
        </mxCell>
        <mxCell id="oKX_38UBTueQ7XM7UWsh-80" value="" style="endArrow=none;html=1;rounded=0;strokeWidth=2;strokeColor=default;align=center;verticalAlign=middle;fontFamily=Helvetica;fontSize=11;fontColor=default;labelBackgroundColor=default;" parent="1" source="hhZgl5cuM9jdRTXyqVL1-97" target="oKX_38UBTueQ7XM7UWsh-78" edge="1">
          <mxGeometry width="50" height="50" relative="1" as="geometry">
            <mxPoint x="219" y="1234" as="sourcePoint" />
            <mxPoint x="244" y="1170" as="targetPoint" />
          </mxGeometry>
        </mxCell>
        <mxCell id="NcRH6i8wWrfHKG98IRMi-21" value="" style="ellipse;whiteSpace=wrap;html=1;aspect=fixed;fillColor=#FF0000;strokeWidth=2;" parent="1" vertex="1">
          <mxGeometry x="918" y="1278" width="28" height="28" as="geometry" />
        </mxCell>
        <mxCell id="NcRH6i8wWrfHKG98IRMi-22" value="" style="endArrow=block;html=1;rounded=0;endFill=1;strokeWidth=2;" parent="1" source="NcRH6i8wWrfHKG98IRMi-21" target="hhZgl5cuM9jdRTXyqVL1-89" edge="1">
          <mxGeometry width="50" height="50" relative="1" as="geometry">
            <mxPoint x="777.995184923471" y="1435.9718581716347" as="sourcePoint" />
            <mxPoint x="774" y="1391" as="targetPoint" />
          </mxGeometry>
        </mxCell>
        <mxCell id="NcRH6i8wWrfHKG98IRMi-23" value="" style="endArrow=none;html=1;rounded=0;strokeWidth=2;" parent="1" source="hhZgl5cuM9jdRTXyqVL1-116" target="NcRH6i8wWrfHKG98IRMi-21" edge="1">
          <mxGeometry width="50" height="50" relative="1" as="geometry">
            <mxPoint x="777" y="1498" as="sourcePoint" />
            <mxPoint x="802" y="1434" as="targetPoint" />
          </mxGeometry>
        </mxCell>
        <mxCell id="NcRH6i8wWrfHKG98IRMi-24" value="" style="ellipse;whiteSpace=wrap;html=1;aspect=fixed;fillColor=#FF0000;strokeWidth=2;" parent="1" vertex="1">
          <mxGeometry x="1018" y="1308.5" width="28" height="28" as="geometry" />
        </mxCell>
        <mxCell id="NcRH6i8wWrfHKG98IRMi-25" value="" style="endArrow=block;html=1;rounded=0;endFill=1;strokeWidth=2;" parent="1" source="NcRH6i8wWrfHKG98IRMi-24" target="hhZgl5cuM9jdRTXyqVL1-90" edge="1">
          <mxGeometry width="50" height="50" relative="1" as="geometry">
            <mxPoint x="894.995184923471" y="1435.9718581716347" as="sourcePoint" />
            <mxPoint x="891" y="1391" as="targetPoint" />
          </mxGeometry>
        </mxCell>
        <mxCell id="NcRH6i8wWrfHKG98IRMi-26" value="" style="endArrow=none;html=1;rounded=0;strokeWidth=2;" parent="1" source="hhZgl5cuM9jdRTXyqVL1-116" target="NcRH6i8wWrfHKG98IRMi-24" edge="1">
          <mxGeometry width="50" height="50" relative="1" as="geometry">
            <mxPoint x="894" y="1498" as="sourcePoint" />
            <mxPoint x="919" y="1434" as="targetPoint" />
          </mxGeometry>
        </mxCell>
        <mxCell id="NcRH6i8wWrfHKG98IRMi-33" value="&lt;b&gt;Accessibility&lt;/b&gt;" style="shape=parallelogram;perimeter=parallelogramPerimeter;whiteSpace=wrap;html=1;fixedSize=1;fillColor=#dae8fc;strokeColor=#000000;fontFamily=Helvetica;fontSize=11;fontColor=default;labelBackgroundColor=none;" parent="1" vertex="1">
          <mxGeometry x="111" y="1010" width="126" height="34" as="geometry" />
        </mxCell>
        <mxCell id="9WKkXAFE8y2bL13F9mK8-7" style="edgeStyle=none;rounded=0;orthogonalLoop=1;jettySize=auto;html=1;strokeColor=default;strokeWidth=2;align=center;verticalAlign=middle;fontFamily=Helvetica;fontSize=11;fontColor=default;labelBackgroundColor=default;endArrow=none;endFill=0;" parent="1" source="NcRH6i8wWrfHKG98IRMi-33" target="hhZgl5cuM9jdRTXyqVL1-16" edge="1">
          <mxGeometry relative="1" as="geometry">
            <mxPoint x="-330" y="911" as="sourcePoint" />
            <mxPoint x="353" y="754" as="targetPoint" />
          </mxGeometry>
        </mxCell>
        <mxCell id="9WKkXAFE8y2bL13F9mK8-8" value="" style="ellipse;whiteSpace=wrap;html=1;aspect=fixed;fillColor=#FF0000;strokeWidth=2;" parent="1" vertex="1">
          <mxGeometry x="1330" y="828" width="28" height="28" as="geometry" />
        </mxCell>
        <mxCell id="9WKkXAFE8y2bL13F9mK8-9" value="" style="endArrow=block;html=1;rounded=0;endFill=1;strokeWidth=2;" parent="1" source="9WKkXAFE8y2bL13F9mK8-8" target="hhZgl5cuM9jdRTXyqVL1-64" edge="1">
          <mxGeometry width="50" height="50" relative="1" as="geometry">
            <mxPoint x="1319.995184923471" y="817.9718581716346" as="sourcePoint" />
            <mxPoint x="1316" y="773" as="targetPoint" />
          </mxGeometry>
        </mxCell>
        <mxCell id="9WKkXAFE8y2bL13F9mK8-10" value="" style="endArrow=none;html=1;rounded=0;strokeWidth=2;" parent="1" source="hhZgl5cuM9jdRTXyqVL1-77" target="9WKkXAFE8y2bL13F9mK8-8" edge="1">
          <mxGeometry width="50" height="50" relative="1" as="geometry">
            <mxPoint x="1319" y="880" as="sourcePoint" />
            <mxPoint x="1344" y="816" as="targetPoint" />
          </mxGeometry>
        </mxCell>
        <mxCell id="9WKkXAFE8y2bL13F9mK8-11" value="" style="ellipse;whiteSpace=wrap;html=1;aspect=fixed;fillColor=#FF0000;strokeWidth=2;" parent="1" vertex="1">
          <mxGeometry x="-349" y="1383.25" width="28" height="28" as="geometry" />
        </mxCell>
        <mxCell id="9WKkXAFE8y2bL13F9mK8-12" value="" style="endArrow=block;html=1;rounded=0;endFill=1;strokeWidth=2;" parent="1" source="9WKkXAFE8y2bL13F9mK8-11" target="hhZgl5cuM9jdRTXyqVL1-56" edge="1">
          <mxGeometry width="50" height="50" relative="1" as="geometry">
            <mxPoint x="-432.814815076529" y="1323.4718581716347" as="sourcePoint" />
            <mxPoint x="-436.81" y="1278.5" as="targetPoint" />
          </mxGeometry>
        </mxCell>
        <mxCell id="9WKkXAFE8y2bL13F9mK8-13" value="" style="endArrow=none;html=1;rounded=0;strokeWidth=2;" parent="1" source="hhZgl5cuM9jdRTXyqVL1-72" target="9WKkXAFE8y2bL13F9mK8-11" edge="1">
          <mxGeometry width="50" height="50" relative="1" as="geometry">
            <mxPoint x="-433.81" y="1385.5" as="sourcePoint" />
            <mxPoint x="-408.81" y="1321.5" as="targetPoint" />
          </mxGeometry>
        </mxCell>
        <mxCell id="9WKkXAFE8y2bL13F9mK8-14" value="&lt;b&gt;Replication of applicational servers&lt;/b&gt;" style="shape=parallelogram;perimeter=parallelogramPerimeter;whiteSpace=wrap;html=1;fixedSize=1;fillColor=#dae8fc;strokeColor=#000000;strokeWidth=3;fontFamily=Helvetica;fontSize=11;fontColor=default;labelBackgroundColor=none;" parent="1" vertex="1">
          <mxGeometry x="122.5" y="1227.25" width="187" height="36" as="geometry" />
        </mxCell>
        <mxCell id="9WKkXAFE8y2bL13F9mK8-15" value="" style="endArrow=none;html=1;rounded=0;strokeWidth=2;strokeColor=default;align=center;verticalAlign=middle;fontFamily=Helvetica;fontSize=11;fontColor=default;labelBackgroundColor=default;" parent="1" source="9WKkXAFE8y2bL13F9mK8-14" target="hhZgl5cuM9jdRTXyqVL1-101" edge="1">
          <mxGeometry width="50" height="50" relative="1" as="geometry">
            <mxPoint x="334" y="1236" as="sourcePoint" />
            <mxPoint x="334" y="1197" as="targetPoint" />
          </mxGeometry>
        </mxCell>
        <mxCell id="9WKkXAFE8y2bL13F9mK8-17" value="" style="ellipse;whiteSpace=wrap;html=1;aspect=fixed;fillColor=#FF0000;strokeWidth=2;" parent="1" vertex="1">
          <mxGeometry x="213" y="1325" width="28" height="28" as="geometry" />
        </mxCell>
        <mxCell id="9WKkXAFE8y2bL13F9mK8-18" value="" style="endArrow=block;html=1;rounded=0;endFill=1;strokeWidth=2;" parent="1" source="9WKkXAFE8y2bL13F9mK8-17" target="9WKkXAFE8y2bL13F9mK8-14" edge="1">
          <mxGeometry width="50" height="50" relative="1" as="geometry">
            <mxPoint x="226.435184923471" y="1274.4718581716347" as="sourcePoint" />
            <mxPoint x="133.99929390464735" y="1264.1932709716355" as="targetPoint" />
          </mxGeometry>
        </mxCell>
        <mxCell id="9WKkXAFE8y2bL13F9mK8-19" value="" style="endArrow=none;html=1;rounded=0;strokeWidth=2;" parent="1" source="hhZgl5cuM9jdRTXyqVL1-97" target="9WKkXAFE8y2bL13F9mK8-17" edge="1">
          <mxGeometry width="50" height="50" relative="1" as="geometry">
            <mxPoint x="225.44" y="1336.5" as="sourcePoint" />
            <mxPoint x="250.44" y="1272.5" as="targetPoint" />
          </mxGeometry>
        </mxCell>
        <mxCell id="VJ46IUaFnkmYb7uttQ85-1" value="&lt;b&gt;Space performance&lt;/b&gt;" style="shape=parallelogram;perimeter=parallelogramPerimeter;whiteSpace=wrap;html=1;fixedSize=1;fillColor=#dae8fc;strokeColor=#000000;fontFamily=Helvetica;fontSize=11;fontColor=default;labelBackgroundColor=none;" vertex="1" parent="1">
          <mxGeometry x="-893" y="1072" width="139" height="34" as="geometry" />
        </mxCell>
        <mxCell id="VJ46IUaFnkmYb7uttQ85-2" value="" style="endArrow=none;html=1;rounded=0;strokeWidth=2;strokeColor=default;align=center;verticalAlign=middle;fontFamily=Helvetica;fontSize=11;fontColor=default;labelBackgroundColor=default;" edge="1" parent="1" source="VJ46IUaFnkmYb7uttQ85-1" target="hhZgl5cuM9jdRTXyqVL1-49">
          <mxGeometry width="50" height="50" relative="1" as="geometry">
            <mxPoint x="-205" y="1089" as="sourcePoint" />
            <mxPoint x="-143" y="1046" as="targetPoint" />
          </mxGeometry>
        </mxCell>
        <mxCell id="VJ46IUaFnkmYb7uttQ85-3" value="&lt;b&gt;Database size&lt;/b&gt;" style="shape=parallelogram;perimeter=parallelogramPerimeter;whiteSpace=wrap;html=1;fixedSize=1;fillColor=#dae8fc;strokeColor=#000000;strokeWidth=3;fontFamily=Helvetica;fontSize=11;fontColor=default;labelBackgroundColor=none;" vertex="1" parent="1">
          <mxGeometry x="-817" y="1317" width="187" height="36" as="geometry" />
        </mxCell>
        <mxCell id="VJ46IUaFnkmYb7uttQ85-4" value="" style="ellipse;whiteSpace=wrap;html=1;aspect=fixed;fillColor=#FFD966;strokeWidth=2;" vertex="1" parent="1">
          <mxGeometry x="-865" y="1260" width="28" height="28" as="geometry" />
        </mxCell>
        <mxCell id="VJ46IUaFnkmYb7uttQ85-5" value="" style="endArrow=block;html=1;rounded=0;endFill=1;strokeWidth=2;" edge="1" source="VJ46IUaFnkmYb7uttQ85-4" parent="1" target="VJ46IUaFnkmYb7uttQ85-1">
          <mxGeometry width="50" height="50" relative="1" as="geometry">
            <mxPoint x="13.995184923471015" y="1165.9718581716347" as="sourcePoint" />
            <mxPoint x="10" y="1121" as="targetPoint" />
          </mxGeometry>
        </mxCell>
        <mxCell id="VJ46IUaFnkmYb7uttQ85-6" value="" style="endArrow=none;html=1;rounded=0;strokeWidth=2;" edge="1" target="VJ46IUaFnkmYb7uttQ85-4" parent="1" source="VJ46IUaFnkmYb7uttQ85-3">
          <mxGeometry width="50" height="50" relative="1" as="geometry">
            <mxPoint x="-865" y="1346.5" as="sourcePoint" />
            <mxPoint x="-840" y="1282.5" as="targetPoint" />
          </mxGeometry>
        </mxCell>
        <mxCell id="VJ46IUaFnkmYb7uttQ85-7" value="&lt;b&gt;Main memory size&lt;/b&gt;" style="shape=parallelogram;perimeter=parallelogramPerimeter;whiteSpace=wrap;html=1;fixedSize=1;fillColor=#dae8fc;strokeColor=#000000;strokeWidth=3;fontFamily=Helvetica;fontSize=11;fontColor=default;labelBackgroundColor=none;" vertex="1" parent="1">
          <mxGeometry x="-1048" y="1445" width="151" height="36" as="geometry" />
        </mxCell>
        <mxCell id="VJ46IUaFnkmYb7uttQ85-8" value="" style="endArrow=none;html=1;rounded=0;strokeWidth=2;" edge="1" parent="1" source="VJ46IUaFnkmYb7uttQ85-7" target="VJ46IUaFnkmYb7uttQ85-4">
          <mxGeometry width="50" height="50" relative="1" as="geometry">
            <mxPoint x="-838" y="1293.5" as="sourcePoint" />
            <mxPoint x="-888" y="1269.5" as="targetPoint" />
          </mxGeometry>
        </mxCell>
        <mxCell id="VJ46IUaFnkmYb7uttQ85-12" value="" style="ellipse;whiteSpace=wrap;html=1;aspect=fixed;fillColor=#FF0000;strokeWidth=2;" vertex="1" parent="1">
          <mxGeometry x="-691" y="1392" width="28" height="28" as="geometry" />
        </mxCell>
        <mxCell id="VJ46IUaFnkmYb7uttQ85-13" value="" style="endArrow=block;html=1;rounded=0;endFill=1;strokeWidth=2;" edge="1" source="VJ46IUaFnkmYb7uttQ85-12" parent="1" target="VJ46IUaFnkmYb7uttQ85-3">
          <mxGeometry width="50" height="50" relative="1" as="geometry">
            <mxPoint x="-706.004815076529" y="1481.4718581716347" as="sourcePoint" />
            <mxPoint x="-710" y="1436.5" as="targetPoint" />
          </mxGeometry>
        </mxCell>
        <mxCell id="VJ46IUaFnkmYb7uttQ85-14" value="" style="endArrow=none;html=1;rounded=0;strokeWidth=2;" edge="1" target="VJ46IUaFnkmYb7uttQ85-12" parent="1" source="hhZgl5cuM9jdRTXyqVL1-72">
          <mxGeometry width="50" height="50" relative="1" as="geometry">
            <mxPoint x="-707" y="1543.5" as="sourcePoint" />
            <mxPoint x="-682" y="1479.5" as="targetPoint" />
          </mxGeometry>
        </mxCell>
        <mxCell id="VJ46IUaFnkmYb7uttQ85-18" value="&lt;b&gt;Availability&lt;/b&gt;" style="shape=parallelogram;perimeter=parallelogramPerimeter;whiteSpace=wrap;html=1;fixedSize=1;fillColor=#dae8fc;strokeColor=#000000;fontFamily=Helvetica;fontSize=11;fontColor=default;labelBackgroundColor=none;" vertex="1" parent="1">
          <mxGeometry x="413" y="960" width="126" height="38" as="geometry" />
        </mxCell>
        <mxCell id="VJ46IUaFnkmYb7uttQ85-19" value="" style="ellipse;whiteSpace=wrap;html=1;aspect=fixed;fillColor=#FF0000;strokeWidth=2;" vertex="1" parent="1">
          <mxGeometry x="-394" y="1571" width="28" height="28" as="geometry" />
        </mxCell>
        <mxCell id="VJ46IUaFnkmYb7uttQ85-20" value="" style="endArrow=block;html=1;rounded=0;endFill=1;strokeWidth=2;" edge="1" source="VJ46IUaFnkmYb7uttQ85-19" parent="1" target="VJ46IUaFnkmYb7uttQ85-7">
          <mxGeometry width="50" height="50" relative="1" as="geometry">
            <mxPoint x="-202.00481507652898" y="1620.9718581716347" as="sourcePoint" />
            <mxPoint x="-206" y="1576" as="targetPoint" />
          </mxGeometry>
        </mxCell>
        <mxCell id="VJ46IUaFnkmYb7uttQ85-21" value="" style="endArrow=none;html=1;rounded=0;strokeWidth=2;" edge="1" target="VJ46IUaFnkmYb7uttQ85-19" parent="1" source="hhZgl5cuM9jdRTXyqVL1-97">
          <mxGeometry width="50" height="50" relative="1" as="geometry">
            <mxPoint x="196" y="1687" as="sourcePoint" />
            <mxPoint x="-178" y="1619" as="targetPoint" />
          </mxGeometry>
        </mxCell>
      </root>
    </mxGraphModel>
  </diagram>
</mxfile>
